<svg width="24" height="29" viewBox="0 0 24 29" fill="none" xmlns="http://www.w3.org/2000/svg">
<path d="M12 27L5.33333 20.0902C3.8238 18.6908 2.7598 16.8493 2.28213 14.8094C1.80446 12.7695 1.93562 10.6273 2.65828 8.66637C3.38093 6.70543 4.66101 5.01814 6.32912 3.82775C7.99723 2.63736 9.97475 2 12 2C14.0252 2 16.0028 2.63736 17.6709 3.82775C19.339 5.01814 20.6191 6.70543 21.3417 8.66637C22.0644 10.6273 22.1955 12.7695 21.7179 14.8094C21.2402 16.8493 20.1762 18.6908 18.6667 20.0902L12 27Z" fill="#909090" fill-opacity="0.51" stroke="#929292" stroke-width="2.14713" stroke-linecap="round" stroke-linejoin="round"/>
<circle cx="12" cy="12" r="8" fill="#365D7C"/>
<path d="M15.4111 8.5261C14.5035 7.62731 13.2774 7.12369 12 7.125H11.9498C10.6656 7.13822 9.4385 7.65766 8.53508 8.57047C7.63166 9.48328 7.12493 10.7157 7.125 12C7.125 14.0156 8.37094 15.7059 10.3762 16.4142C10.6024 16.494 10.8444 16.5183 11.082 16.4852C11.3195 16.4521 11.5456 16.3626 11.7414 16.2241C11.9372 16.0855 12.0969 15.9021 12.2071 15.6891C12.3174 15.4761 12.3749 15.2398 12.375 15C12.375 14.8011 12.454 14.6103 12.5947 14.4697C12.7353 14.329 12.9261 14.25 13.125 14.25H15.2911C15.6313 14.2517 15.9619 14.1369 16.228 13.9247C16.494 13.7126 16.6795 13.4158 16.7536 13.0838C16.8374 12.7147 16.8782 12.3372 16.875 11.9588C16.8702 11.3182 16.7384 10.6849 16.4871 10.0957C16.2358 9.50647 15.8701 8.97296 15.4111 8.5261ZM9.9375 13.875C9.82625 13.875 9.71749 13.842 9.62499 13.7802C9.53249 13.7184 9.46039 13.6305 9.41782 13.5278C9.37524 13.425 9.3641 13.3119 9.38581 13.2028C9.40751 13.0937 9.46109 12.9934 9.53975 12.9148C9.61842 12.8361 9.71865 12.7825 9.82776 12.7608C9.93688 12.7391 10.05 12.7502 10.1528 12.7928C10.2555 12.8354 10.3434 12.9075 10.4052 13C10.467 13.0925 10.5 13.2013 10.5 13.3125C10.5 13.4617 10.4407 13.6048 10.3352 13.7103C10.2298 13.8157 10.0867 13.875 9.9375 13.875ZM9.9375 11.25C9.82625 11.25 9.71749 11.217 9.62499 11.1552C9.53249 11.0934 9.46039 11.0055 9.41782 10.9028C9.37524 10.8 9.3641 10.6869 9.38581 10.5778C9.40751 10.4686 9.46109 10.3684 9.53975 10.2898C9.61842 10.2111 9.71865 10.1575 9.82776 10.1358C9.93688 10.1141 10.05 10.1252 10.1528 10.1678C10.2555 10.2104 10.3434 10.2825 10.4052 10.375C10.467 10.4675 10.5 10.5763 10.5 10.6875C10.5 10.8367 10.4407 10.9798 10.3352 11.0853C10.2298 11.1907 10.0867 11.25 9.9375 11.25ZM12 10.125C11.8887 10.125 11.78 10.092 11.6875 10.0302C11.595 9.9684 11.5229 9.88055 11.4803 9.77776C11.4377 9.67498 11.4266 9.56188 11.4483 9.45276C11.47 9.34365 11.5236 9.24342 11.6023 9.16476C11.6809 9.08609 11.7811 9.03252 11.8903 9.01081C11.9994 8.98911 12.1125 9.00025 12.2153 9.04282C12.318 9.08539 12.4059 9.15749 12.4677 9.24999C12.5295 9.3425 12.5625 9.45125 12.5625 9.5625C12.5625 9.71169 12.5032 9.85476 12.3977 9.96025C12.2923 10.0657 12.1492 10.125 12 10.125ZM14.0625 11.25C13.9512 11.25 13.8425 11.217 13.75 11.1552C13.6575 11.0934 13.5854 11.0055 13.5428 10.9028C13.5002 10.8 13.4891 10.6869 13.5108 10.5778C13.5325 10.4686 13.5861 10.3684 13.6648 10.2898C13.7434 10.2111 13.8436 10.1575 13.9528 10.1358C14.0619 10.1141 14.175 10.1252 14.2778 10.1678C14.3805 10.2104 14.4684 10.2825 14.5302 10.375C14.592 10.4675 14.625 10.5763 14.625 10.6875C14.625 10.8367 14.5657 10.9798 14.4602 11.0853C14.3548 11.1907 14.2117 11.25 14.0625 11.25Z" fill="white"/>
</svg>
