<svg width="24" height="29" viewBox="0 0 24 29" fill="none" xmlns="http://www.w3.org/2000/svg">
<path d="M12 27L5.33333 20.0902C3.8238 18.6908 2.7598 16.8493 2.28213 14.8094C1.80446 12.7695 1.93562 10.6273 2.65828 8.66637C3.38093 6.70543 4.66101 5.01814 6.32912 3.82775C7.99723 2.63736 9.97475 2 12 2C14.0252 2 16.0028 2.63736 17.6709 3.82775C19.339 5.01814 20.6191 6.70543 21.3417 8.66637C22.0644 10.6273 22.1955 12.7695 21.7179 14.8094C21.2402 16.8493 20.1762 18.6908 18.6667 20.0902L12 27Z" fill="#909090" fill-opacity="0.51" stroke="#929292" stroke-width="2.14713" stroke-linecap="round" stroke-linejoin="round"/>
<circle cx="12" cy="12" r="8" fill="#365D7C"/>
<path d="M17.2501 9.75C17.2501 9.25272 17.0525 8.77581 16.7009 8.42417C16.3493 8.07254 15.8724 7.875 15.3751 7.875H8.25009C7.81953 7.87526 7.40218 8.0237 7.06815 8.29537C6.73412 8.56704 6.50376 8.94539 6.41578 9.36687C6.32781 9.78834 6.38756 10.2273 6.58502 10.6099C6.78247 10.9925 7.10559 11.2955 7.50009 11.468V15.375C7.50009 15.5739 7.5791 15.7647 7.71976 15.9053C7.86041 16.046 8.05117 16.125 8.25009 16.125H15.3751C15.574 16.125 15.7648 16.046 15.9054 15.9053C16.0461 15.7647 16.1251 15.5739 16.1251 15.375V11.468C16.4592 11.3218 16.7435 11.0815 16.9432 10.7764C17.143 10.4713 17.2496 10.1147 17.2501 9.75ZM8.25009 11.625C8.34954 11.625 8.44492 11.5855 8.51525 11.5152C8.58558 11.4448 8.62509 11.3495 8.62509 11.25C8.62509 11.1505 8.58558 11.0552 8.51525 10.9848C8.44492 10.9145 8.34954 10.875 8.25009 10.875C7.95172 10.875 7.66557 10.7565 7.45459 10.5455C7.24361 10.3345 7.12509 10.0484 7.12509 9.75C7.12509 9.45163 7.24361 9.16548 7.45459 8.9545C7.66557 8.74353 7.95172 8.625 8.25009 8.625H12.7501C13.0485 8.625 13.3346 8.74353 13.5456 8.9545C13.7566 9.16548 13.8751 9.45163 13.8751 9.75C13.8751 10.0484 13.7566 10.3345 13.5456 10.5455C13.3346 10.7565 13.0485 10.875 12.7501 10.875C12.6506 10.875 12.5552 10.9145 12.4849 10.9848C12.4146 11.0552 12.3751 11.1505 12.3751 11.25C12.3751 11.3495 12.4146 11.4448 12.4849 11.5152C12.5552 11.5855 12.6506 11.625 12.7501 11.625V15.375H8.25009V11.625ZM15.3751 10.875C15.2756 10.875 15.1802 10.9145 15.1099 10.9848C15.0396 11.0552 15.0001 11.1505 15.0001 11.25C15.0001 11.3495 15.0396 11.4448 15.1099 11.5152C15.1802 11.5855 15.2756 11.625 15.3751 11.625V15.375H13.5001V11.468C13.7593 11.3548 13.9895 11.1845 14.1735 10.9697C14.3576 10.755 14.4906 10.5014 14.5628 10.2279C14.6349 9.95444 14.6443 9.6682 14.5901 9.39062C14.536 9.11303 14.4197 8.8513 14.2501 8.625H15.3751C15.6735 8.625 15.9596 8.74353 16.1706 8.9545C16.3816 9.16548 16.5001 9.45163 16.5001 9.75C16.5001 10.0484 16.3816 10.3345 16.1706 10.5455C15.9596 10.7565 15.6735 10.875 15.3751 10.875Z" fill="white"/>
</svg>
