<svg width="24" height="29" viewBox="0 0 24 29" fill="none" xmlns="http://www.w3.org/2000/svg">
<path d="M12 27L5.33333 20.0902C3.8238 18.6908 2.7598 16.8493 2.28213 14.8094C1.80446 12.7695 1.93562 10.6273 2.65828 8.66637C3.38093 6.70543 4.66101 5.01814 6.32912 3.82775C7.99723 2.63736 9.97475 2 12 2C14.0252 2 16.0028 2.63736 17.6709 3.82775C19.339 5.01814 20.6191 6.70543 21.3417 8.66637C22.0644 10.6273 22.1955 12.7695 21.7179 14.8094C21.2402 16.8493 20.1762 18.6908 18.6667 20.0902L12 27Z" fill="#909090" fill-opacity="0.51" stroke="#929292" stroke-width="2.14713" stroke-linecap="round" stroke-linejoin="round"/>
<circle cx="12" cy="12" r="8" fill="#365D7C"/>
<path d="M15.125 10.125H8.25C8.16712 10.125 8.08763 10.1579 8.02903 10.2165C7.97042 10.2751 7.9375 10.3546 7.9375 10.4375V12.3125C7.93843 12.8445 8.05221 13.3703 8.27132 13.8551C8.49043 14.3399 8.80988 14.7727 9.20859 15.125H8.25C8.16712 15.125 8.08763 15.1579 8.02903 15.2165C7.97042 15.2751 7.9375 15.3546 7.9375 15.4375C7.9375 15.5204 7.97042 15.5999 8.02903 15.6585C8.08763 15.7171 8.16712 15.75 8.25 15.75H15.125C15.2079 15.75 15.2874 15.7171 15.346 15.6585C15.4046 15.5999 15.4375 15.5204 15.4375 15.4375C15.4375 15.3546 15.4046 15.2751 15.346 15.2165C15.2874 15.1579 15.2079 15.125 15.125 15.125H14.1664C14.645 14.7008 15.0079 14.1619 15.2211 13.559C15.618 13.5345 15.9907 13.3597 16.2631 13.07C16.5356 12.7803 16.6874 12.3977 16.6875 12V11.6875C16.6875 11.2731 16.5229 10.8757 16.2299 10.5826C15.9368 10.2896 15.5394 10.125 15.125 10.125ZM16.0625 12C16.0624 12.2022 15.9969 12.3989 15.8758 12.5608C15.7547 12.7227 15.5845 12.8412 15.3906 12.8984C15.4216 12.7047 15.4373 12.5087 15.4375 12.3125V10.8039C15.6202 10.8685 15.7785 10.9882 15.8904 11.1464C16.0023 11.3046 16.0624 11.4937 16.0625 11.6875V12ZM11.375 9.1875V7.9375C11.375 7.85462 11.4079 7.77513 11.4665 7.71653C11.5251 7.65792 11.6046 7.625 11.6875 7.625C11.7704 7.625 11.8499 7.65792 11.9085 7.71653C11.9671 7.77513 12 7.85462 12 7.9375V9.1875C12 9.27038 11.9671 9.34987 11.9085 9.40847C11.8499 9.46708 11.7704 9.5 11.6875 9.5C11.6046 9.5 11.5251 9.46708 11.4665 9.40847C11.4079 9.34987 11.375 9.27038 11.375 9.1875ZM12.625 9.1875V7.9375C12.625 7.85462 12.6579 7.77513 12.7165 7.71653C12.7751 7.65792 12.8546 7.625 12.9375 7.625C13.0204 7.625 13.0999 7.65792 13.1585 7.71653C13.2171 7.77513 13.25 7.85462 13.25 7.9375V9.1875C13.25 9.27038 13.2171 9.34987 13.1585 9.40847C13.0999 9.46708 13.0204 9.5 12.9375 9.5C12.8546 9.5 12.7751 9.46708 12.7165 9.40847C12.6579 9.34987 12.625 9.27038 12.625 9.1875ZM10.125 9.1875V7.9375C10.125 7.85462 10.1579 7.77513 10.2165 7.71653C10.2751 7.65792 10.3546 7.625 10.4375 7.625C10.5204 7.625 10.5999 7.65792 10.6585 7.71653C10.7171 7.77513 10.75 7.85462 10.75 7.9375V9.1875C10.75 9.27038 10.7171 9.34987 10.6585 9.40847C10.5999 9.46708 10.5204 9.5 10.4375 9.5C10.3546 9.5 10.2751 9.46708 10.2165 9.40847C10.1579 9.34987 10.125 9.27038 10.125 9.1875Z" fill="white"/>
</svg>