<svg width="24" height="29" viewBox="0 0 24 29" fill="none" xmlns="http://www.w3.org/2000/svg">
<path d="M12 27L5.33333 20.0902C3.8238 18.6908 2.7598 16.8493 2.28213 14.8094C1.80446 12.7695 1.93562 10.6273 2.65828 8.66637C3.38093 6.70543 4.66101 5.01814 6.32912 3.82775C7.99723 2.63736 9.97475 2 12 2C14.0252 2 16.0028 2.63736 17.6709 3.82775C19.339 5.01814 20.6191 6.70543 21.3417 8.66637C22.0644 10.6273 22.1955 12.7695 21.7179 14.8094C21.2402 16.8493 20.1762 18.6908 18.6667 20.0902L12 27Z" fill="#909090" fill-opacity="0.51" stroke="#929292" stroke-width="2.14713" stroke-linecap="round" stroke-linejoin="round"/>
<circle cx="12" cy="12" r="8" fill="#365D7C"/>
<path d="M16.875 10.5C16.8752 10.4651 16.8705 10.4304 16.8609 10.3969L16.1883 8.04375C16.1431 7.88762 16.0486 7.7503 15.9189 7.65229C15.7892 7.55429 15.6313 7.50087 15.4688 7.5H8.53125C8.3687 7.50087 8.2108 7.55429 8.08112 7.65229C7.95143 7.7503 7.85693 7.88762 7.81172 8.04375L7.13953 10.3969C7.12985 10.4304 7.12496 10.4651 7.125 10.5V11.25C7.125 11.5411 7.19277 11.8282 7.32295 12.0885C7.45313 12.3489 7.64213 12.5753 7.875 12.75V16.125C7.875 16.2245 7.91451 16.3198 7.98484 16.3902C8.05516 16.4605 8.15054 16.5 8.25 16.5H15.75C15.8495 16.5 15.9448 16.4605 16.0152 16.3902C16.0855 16.3198 16.125 16.2245 16.125 16.125V12.75C16.3579 12.5753 16.5469 12.3489 16.6771 12.0885C16.8072 11.8282 16.875 11.5411 16.875 11.25V10.5ZM8.53125 8.25H15.4688L16.0041 10.125H7.99734L8.53125 8.25ZM10.875 10.875H13.125V11.25C13.125 11.5484 13.0065 11.8345 12.7955 12.0455C12.5845 12.2565 12.2984 12.375 12 12.375C11.7016 12.375 11.4155 12.2565 11.2045 12.0455C10.9935 11.8345 10.875 11.5484 10.875 11.25V10.875ZM10.125 10.875V11.25C10.1249 11.4435 10.075 11.6336 9.97996 11.8021C9.88495 11.9707 9.74809 12.1118 9.58259 12.212C9.4171 12.3122 9.22856 12.368 9.0352 12.3741C8.84184 12.3801 8.65019 12.3362 8.47875 12.2466C8.45266 12.2263 8.42397 12.2095 8.39344 12.1969C8.23457 12.0952 8.10382 11.9551 8.01323 11.7897C7.92263 11.6242 7.8751 11.4386 7.875 11.25V10.875H10.125ZM15.375 15.75H8.625V13.0875C8.74845 13.1124 8.87407 13.1249 9 13.125C9.29108 13.125 9.57817 13.0572 9.83853 12.9271C10.0989 12.7969 10.3253 12.6079 10.5 12.375C10.6747 12.6079 10.9011 12.7969 11.1615 12.9271C11.4218 13.0572 11.7089 13.125 12 13.125C12.2911 13.125 12.5782 13.0572 12.8385 12.9271C13.0989 12.7969 13.3253 12.6079 13.5 12.375C13.6747 12.6079 13.9011 12.7969 14.1615 12.9271C14.4218 13.0572 14.7089 13.125 15 13.125C15.1259 13.1249 15.2515 13.1124 15.375 13.0875V15.75ZM15.6061 12.1969C15.576 12.2096 15.5476 12.2261 15.5217 12.2461C15.3503 12.3358 15.1586 12.3798 14.9652 12.3738C14.7719 12.3679 14.5833 12.3121 14.4177 12.212C14.2522 12.1118 14.1153 11.9707 14.0202 11.8022C13.9251 11.6337 13.8751 11.4435 13.875 11.25V10.875H16.125V11.25C16.1248 11.4387 16.0772 11.6243 15.9866 11.7898C15.8959 11.9552 15.7651 12.0952 15.6061 12.1969Z" fill="white"/>
</svg>
