<svg width="24" height="29" viewBox="0 0 24 29" fill="none" xmlns="http://www.w3.org/2000/svg">
<path d="M12 27L5.33333 20.0902C3.8238 18.6908 2.7598 16.8493 2.28213 14.8094C1.80446 12.7695 1.93562 10.6273 2.65828 8.66637C3.38093 6.70543 4.66101 5.01814 6.32912 3.82775C7.99723 2.63736 9.97475 2 12 2C14.0252 2 16.0028 2.63736 17.6709 3.82775C19.339 5.01814 20.6191 6.70543 21.3417 8.66637C22.0644 10.6273 22.1955 12.7695 21.7179 14.8094C21.2402 16.8493 20.1762 18.6908 18.6667 20.0902L12 27Z" fill="#909090" fill-opacity="0.51" stroke="#929292" stroke-width="2.14713" stroke-linecap="round" stroke-linejoin="round"/>
<circle cx="12" cy="12" r="8" fill="#365D7C"/>
<path d="M8.00437 8.34375C7.96403 8.37872 7.93162 8.4219 7.90931 8.4704C7.887 8.51891 7.8753 8.57162 7.875 8.625V16.5C7.875 16.5995 7.91451 16.6948 7.98484 16.7652C8.05516 16.8355 8.15054 16.875 8.25 16.875C8.34946 16.875 8.44484 16.8355 8.51516 16.7652C8.58549 16.6948 8.625 16.5995 8.625 16.5V14.4267C9.88078 13.4348 10.9627 13.9697 12.2086 14.5866C12.9773 14.9667 13.8052 15.3764 14.693 15.3764C15.3459 15.3764 16.0308 15.1538 16.747 14.5327C16.7874 14.4977 16.8198 14.4545 16.8421 14.406C16.8644 14.3575 16.8761 14.3048 16.8764 14.2514V8.625C16.8762 8.55302 16.8554 8.48262 16.8163 8.42218C16.7772 8.36175 16.7215 8.31385 16.6559 8.28419C16.5903 8.25454 16.5176 8.24438 16.4464 8.25495C16.3752 8.26551 16.3085 8.29634 16.2544 8.34375C14.9419 9.47953 13.83 8.92922 12.5414 8.29125C11.2064 7.62938 9.69281 6.88078 8.00437 8.34375ZM16.125 14.0742C14.8692 15.0661 13.7873 14.5308 12.5414 13.9144C11.3695 13.3355 10.0659 12.6895 8.625 13.5206V8.80266C9.88078 7.81078 10.9627 8.34563 12.2086 8.96203C13.3805 9.54094 14.6845 10.1869 16.125 9.35578V14.0742Z" fill="white"/>
</svg>