<svg width="24" height="29" viewBox="0 0 24 29" fill="none" xmlns="http://www.w3.org/2000/svg">
<path d="M12 27L5.33333 20.0902C3.8238 18.6908 2.7598 16.8493 2.28213 14.8094C1.80446 12.7695 1.93562 10.6273 2.65828 8.66637C3.38093 6.70543 4.66101 5.01814 6.32912 3.82775C7.99723 2.63736 9.97475 2 12 2C14.0252 2 16.0028 2.63736 17.6709 3.82775C19.339 5.01814 20.6191 6.70543 21.3417 8.66637C22.0644 10.6273 22.1955 12.7695 21.7179 14.8094C21.2402 16.8493 20.1762 18.6908 18.6667 20.0902L12 27Z" fill="#909090" fill-opacity="0.51" stroke="#929292" stroke-width="2.14713" stroke-linecap="round" stroke-linejoin="round"/>
<circle cx="12" cy="12" r="8" fill="#365D7C"/>
<g clip-path="url(#clip0_1_4)">
<path d="M12.1563 8.7659V6.6875C12.1563 6.59633 12.12 6.5089 12.0556 6.44443C11.9911 6.37997 11.9037 6.34375 11.8125 6.34375C11.7213 6.34375 11.6339 6.37997 11.5694 6.44443C11.505 6.5089 11.4688 6.59633 11.4688 6.6875V8.7659C10.4997 8.85436 9.60209 9.31299 8.96257 10.0464C8.32306 10.7798 7.99089 11.7315 8.03517 12.7035C8.07945 13.6756 8.49676 14.5932 9.20029 15.2654C9.90383 15.9376 10.8394 16.3127 11.8125 16.3127C12.7856 16.3127 13.7212 15.9376 14.4247 15.2654C15.1283 14.5932 15.5456 13.6756 15.5898 12.7035C15.6341 11.7315 15.3019 10.7798 14.6624 10.0464C14.0229 9.31299 13.1253 8.85436 12.1563 8.7659ZM14.8865 12.1875H13.5214C13.4565 10.9689 13.0577 10.1095 12.6861 9.56383C13.2699 9.73675 13.79 10.0778 14.1813 10.5444C14.5726 11.0109 14.8179 11.5824 14.8865 12.1875ZM12.8334 12.875C12.7475 14.3153 12.1404 15.1502 11.8125 15.4995C11.4842 15.1493 10.8771 14.3149 10.7916 12.875H12.8334ZM10.9389 9.56383C10.5664 10.1095 10.1685 10.9689 10.1036 12.1875H8.73852C8.80712 11.5824 9.05239 11.0109 9.4437 10.5444C9.83502 10.0778 10.3551 9.73675 10.9389 9.56383ZM8.73852 12.875H10.1036C10.1685 14.0936 10.5673 14.953 10.9389 15.4987C10.3551 15.3258 9.83502 14.9847 9.4437 14.5181C9.05239 14.0516 8.80712 13.4801 8.73852 12.875ZM18 9.78125C18 9.87242 17.9638 9.95985 17.8993 10.0243C17.8349 10.0888 17.7474 10.125 17.6563 10.125H17.3125V10.4688C17.3125 10.5599 17.2763 10.6474 17.2118 10.7118C17.1474 10.7763 17.0599 10.8125 16.9688 10.8125C16.8776 10.8125 16.7902 10.7763 16.7257 10.7118C16.6612 10.6474 16.625 10.5599 16.625 10.4688V10.125H16.2813C16.1901 10.125 16.1027 10.0888 16.0382 10.0243C15.9737 9.95985 15.9375 9.87242 15.9375 9.78125C15.9375 9.69008 15.9737 9.60265 16.0382 9.53818C16.1027 9.47372 16.1901 9.4375 16.2813 9.4375H16.625V9.09375C16.625 9.00258 16.6612 8.91515 16.7257 8.85068C16.7902 8.78622 16.8776 8.75 16.9688 8.75C17.0599 8.75 17.1474 8.78622 17.2118 8.85068C17.2763 8.91515 17.3125 9.00258 17.3125 9.09375V9.4375H17.6563C17.7474 9.4375 17.8349 9.47372 17.8993 9.53818C17.9638 9.60265 18 9.69008 18 9.78125ZM13.5313 7.71875C13.5313 7.62758 13.5675 7.54015 13.6319 7.47568C13.6964 7.41122 13.7838 7.375 13.875 7.375H14.5625V6.6875C14.5625 6.59633 14.5987 6.5089 14.6632 6.44443C14.7277 6.37997 14.8151 6.34375 14.9063 6.34375C14.9974 6.34375 15.0849 6.37997 15.1493 6.44443C15.2138 6.5089 15.25 6.59633 15.25 6.6875V7.375H15.9375C16.0287 7.375 16.1161 7.41122 16.1806 7.47568C16.245 7.54015 16.2813 7.62758 16.2813 7.71875C16.2813 7.80992 16.245 7.89735 16.1806 7.96182C16.1161 8.02628 16.0287 8.0625 15.9375 8.0625H15.25V8.75C15.25 8.84117 15.2138 8.9286 15.1493 8.99307C15.0849 9.05753 14.9974 9.09375 14.9063 9.09375C14.8151 9.09375 14.7277 9.05753 14.6632 8.99307C14.5987 8.9286 14.5625 8.84117 14.5625 8.75V8.0625H13.875C13.7838 8.0625 13.6964 8.02628 13.6319 7.96182C13.5675 7.89735 13.5313 7.80992 13.5313 7.71875Z" fill="white"/>
</g>
<defs>
<clipPath id="clip0_1_4">
<rect width="11" height="11" fill="white" transform="translate(7 6)"/>
</clipPath>
</defs>
</svg>