<svg width="24" height="29" viewBox="0 0 24 29" fill="none" xmlns="http://www.w3.org/2000/svg">
<path d="M12 27L5.33333 20.0902C3.8238 18.6908 2.7598 16.8493 2.28213 14.8094C1.80446 12.7695 1.93562 10.6273 2.65828 8.66637C3.38093 6.70543 4.66101 5.01814 6.32912 3.82775C7.99723 2.63736 9.97475 2 12 2C14.0252 2 16.0028 2.63736 17.6709 3.82775C19.339 5.01814 20.6191 6.70543 21.3417 8.66637C22.0644 10.6273 22.1955 12.7695 21.7179 14.8094C21.2402 16.8493 20.1762 18.6908 18.6667 20.0902L12 27Z" fill="#909090" fill-opacity="0.51" stroke="#929292" stroke-width="2.14713" stroke-linecap="round" stroke-linejoin="round"/>
<circle cx="12" cy="12" r="8" fill="#365D7C"/>
<path d="M12.1162 8.0466C12.0852 8.01669 12.0439 8 12.001 8C11.9581 8 11.9169 8.01669 11.8859 8.0466L8.05206 11.74C8.03578 11.7557 8.02283 11.7746 8.01399 11.7955C8.00514 11.8164 8.0006 11.8389 8.00062 11.8616L8 15.328C8 15.5062 8.07021 15.6771 8.19518 15.8032C8.32015 15.9292 8.48965 16 8.66639 16H10.6676C10.756 16 10.8408 15.9646 10.9032 15.9016C10.9657 15.8386 11.0008 15.7531 11.0008 15.664V12.8079C11.0008 12.7633 11.0184 12.7206 11.0496 12.6891C11.0809 12.6576 11.1232 12.6399 11.1674 12.6399H12.8334C12.8776 12.6399 12.92 12.6576 12.9512 12.6891C12.9824 12.7206 13 12.7633 13 12.8079V15.664C13 15.7531 13.0351 15.8386 13.0976 15.9016C13.1601 15.9646 13.2448 16 13.3332 16H15.3336C15.5103 16 15.6798 15.9292 15.8048 15.8032C15.9298 15.6771 16 15.5062 16 15.328V11.8616C16 11.8389 15.9955 11.8164 15.9866 11.7955C15.9778 11.7746 15.9648 11.7557 15.9486 11.74L12.1162 8.0466Z" fill="white"/>
<path d="M16.8939 11.4194L15.3356 9.92867V7.6666C15.3356 7.5782 15.3005 7.49343 15.238 7.43092C15.1755 7.36842 15.0907 7.3333 15.0023 7.3333H14.0023C13.9139 7.3333 13.8291 7.36842 13.7666 7.43092C13.7041 7.49343 13.6689 7.5782 13.6689 7.6666V8.3332L12.4623 7.17957C12.3494 7.06541 12.1815 7 12 7C11.8192 7 11.6517 7.06541 11.5387 7.17977L7.10751 11.4189C6.97792 11.5439 6.96167 11.7495 7.07959 11.8849C7.1092 11.9191 7.14546 11.9469 7.18615 11.9666C7.22685 11.9864 7.27113 11.9976 7.31631 11.9997C7.36148 12.0017 7.40661 11.9946 7.44893 11.9786C7.49126 11.9627 7.5299 11.9383 7.56251 11.907L11.8854 7.77659C11.9164 7.74692 11.9577 7.73036 12.0006 7.73036C12.0435 7.73036 12.0848 7.74692 12.1158 7.77659L16.4392 11.907C16.5028 11.9681 16.5881 12.0014 16.6764 11.9997C16.7646 11.998 16.8485 11.9613 16.9098 11.8978C17.0377 11.7654 17.0271 11.5466 16.8939 11.4194Z" fill="white"/>
</svg>