<svg width="287" height="68" viewBox="0 0 287 68" fill="none" xmlns="http://www.w3.org/2000/svg">
<rect x="1" y="1" width="285" height="66" rx="33" fill="black" fill-opacity="0.16"/>
<rect x="1" y="1" width="285" height="66" rx="33" stroke="black" stroke-width="2"/>
<rect x="94" y="6" width="187" height="56" rx="28" fill="black"/>
<path d="M124.752 39.0566V41H117.203V39.0566H124.752ZM117.896 26.7812V41H115.445V26.7812H117.896ZM123.766 32.7188V34.6328H117.203V32.7188H123.766ZM124.703 26.7812V28.7344H117.203V26.7812H124.703ZM128.316 30.4336L130.328 33.9395L132.379 30.4336H134.967L131.764 35.6191L135.094 41H132.506L130.357 37.3477L128.209 41H125.611L128.932 35.6191L125.738 30.4336H128.316ZM138.941 32.4648V45.0625H136.588V30.4336H138.756L138.941 32.4648ZM145.826 35.6191V35.8242C145.826 36.5924 145.735 37.3053 145.553 37.9629C145.377 38.6139 145.113 39.1836 144.762 39.6719C144.417 40.1536 143.99 40.528 143.482 40.7949C142.975 41.0618 142.389 41.1953 141.725 41.1953C141.067 41.1953 140.491 41.0749 139.996 40.834C139.508 40.5866 139.094 40.2383 138.756 39.7891C138.417 39.3398 138.144 38.8125 137.936 38.207C137.734 37.5951 137.59 36.9245 137.506 36.1953V35.4043C137.59 34.6296 137.734 33.9264 137.936 33.2949C138.144 32.6634 138.417 32.1198 138.756 31.6641C139.094 31.2083 139.508 30.8568 139.996 30.6094C140.484 30.362 141.054 30.2383 141.705 30.2383C142.369 30.2383 142.958 30.3685 143.473 30.6289C143.987 30.8828 144.42 31.2474 144.771 31.7227C145.123 32.1914 145.387 32.7578 145.562 33.4219C145.738 34.0794 145.826 34.8118 145.826 35.6191ZM143.473 35.8242V35.6191C143.473 35.1309 143.427 34.6784 143.336 34.2617C143.245 33.8385 143.102 33.4674 142.906 33.1484C142.711 32.8294 142.46 32.582 142.154 32.4062C141.855 32.224 141.493 32.1328 141.07 32.1328C140.654 32.1328 140.296 32.2044 139.996 32.3477C139.697 32.4844 139.446 32.6764 139.244 32.9238C139.042 33.1712 138.886 33.4609 138.775 33.793C138.665 34.1185 138.587 34.4733 138.541 34.8574V36.752C138.619 37.2207 138.753 37.6504 138.941 38.041C139.13 38.4316 139.397 38.7441 139.742 38.9785C140.094 39.2064 140.543 39.3203 141.09 39.3203C141.513 39.3203 141.874 39.2292 142.174 39.0469C142.473 38.8646 142.717 38.6139 142.906 38.2949C143.102 37.9694 143.245 37.5951 143.336 37.1719C143.427 36.7487 143.473 36.2995 143.473 35.8242ZM150.348 26V41H147.984V26H150.348ZM152.477 35.834V35.6094C152.477 34.8477 152.587 34.1413 152.809 33.4902C153.03 32.8327 153.349 32.263 153.766 31.7812C154.189 31.293 154.703 30.9154 155.309 30.6484C155.921 30.375 156.611 30.2383 157.379 30.2383C158.154 30.2383 158.844 30.375 159.449 30.6484C160.061 30.9154 160.579 31.293 161.002 31.7812C161.425 32.263 161.747 32.8327 161.969 33.4902C162.19 34.1413 162.301 34.8477 162.301 35.6094V35.834C162.301 36.5957 162.19 37.3021 161.969 37.9531C161.747 38.6042 161.425 39.1738 161.002 39.6621C160.579 40.1439 160.064 40.5215 159.459 40.7949C158.854 41.0618 158.167 41.1953 157.398 41.1953C156.624 41.1953 155.93 41.0618 155.318 40.7949C154.713 40.5215 154.199 40.1439 153.775 39.6621C153.352 39.1738 153.03 38.6042 152.809 37.9531C152.587 37.3021 152.477 36.5957 152.477 35.834ZM154.83 35.6094V35.834C154.83 36.3092 154.879 36.7585 154.977 37.1816C155.074 37.6048 155.227 37.9759 155.436 38.2949C155.644 38.6139 155.911 38.8646 156.236 39.0469C156.562 39.2292 156.949 39.3203 157.398 39.3203C157.835 39.3203 158.212 39.2292 158.531 39.0469C158.857 38.8646 159.124 38.6139 159.332 38.2949C159.54 37.9759 159.693 37.6048 159.791 37.1816C159.895 36.7585 159.947 36.3092 159.947 35.834V35.6094C159.947 35.1406 159.895 34.6979 159.791 34.2812C159.693 33.8581 159.537 33.4837 159.322 33.1582C159.114 32.8327 158.847 32.5788 158.521 32.3965C158.202 32.2077 157.822 32.1133 157.379 32.1133C156.936 32.1133 156.552 32.2077 156.227 32.3965C155.908 32.5788 155.644 32.8327 155.436 33.1582C155.227 33.4837 155.074 33.8581 154.977 34.2812C154.879 34.6979 154.83 35.1406 154.83 35.6094ZM166.637 32.4453V41H164.283V30.4336H166.529L166.637 32.4453ZM169.869 30.3652L169.85 32.5527C169.706 32.5267 169.55 32.5072 169.381 32.4941C169.218 32.4811 169.055 32.4746 168.893 32.4746C168.489 32.4746 168.134 32.5332 167.828 32.6504C167.522 32.7611 167.265 32.9238 167.057 33.1387C166.855 33.347 166.699 33.6009 166.588 33.9004C166.477 34.1999 166.412 34.5352 166.393 34.9062L165.855 34.9453C165.855 34.2812 165.921 33.666 166.051 33.0996C166.181 32.5332 166.376 32.0352 166.637 31.6055C166.904 31.1758 167.236 30.8405 167.633 30.5996C168.036 30.3587 168.502 30.2383 169.029 30.2383C169.173 30.2383 169.326 30.2513 169.488 30.2773C169.658 30.3034 169.785 30.3327 169.869 30.3652ZM175.807 41.1953C175.025 41.1953 174.319 41.0684 173.688 40.8145C173.062 40.554 172.529 40.1927 172.086 39.7305C171.65 39.2682 171.314 38.7246 171.08 38.0996C170.846 37.4746 170.729 36.8008 170.729 36.0781V35.6875C170.729 34.8607 170.849 34.112 171.09 33.4414C171.331 32.7708 171.666 32.1979 172.096 31.7227C172.525 31.2409 173.033 30.873 173.619 30.6191C174.205 30.3652 174.84 30.2383 175.523 30.2383C176.279 30.2383 176.939 30.3652 177.506 30.6191C178.072 30.873 178.541 31.2311 178.912 31.6934C179.29 32.1491 179.57 32.6927 179.752 33.3242C179.941 33.9557 180.035 34.6523 180.035 35.4141V36.4199H171.871V34.7305H177.711V34.5449C177.698 34.1217 177.613 33.7246 177.457 33.3535C177.307 32.9824 177.076 32.6829 176.764 32.4551C176.451 32.2272 176.035 32.1133 175.514 32.1133C175.123 32.1133 174.775 32.1979 174.469 32.3672C174.169 32.5299 173.919 32.7676 173.717 33.0801C173.515 33.3926 173.359 33.7702 173.248 34.2129C173.144 34.6491 173.092 35.1406 173.092 35.6875V36.0781C173.092 36.5404 173.154 36.9701 173.277 37.3672C173.408 37.7578 173.596 38.0996 173.844 38.3926C174.091 38.6855 174.391 38.9167 174.742 39.0859C175.094 39.2487 175.494 39.3301 175.943 39.3301C176.51 39.3301 177.014 39.2161 177.457 38.9883C177.9 38.7604 178.284 38.4382 178.609 38.0215L179.85 39.2227C179.622 39.5547 179.326 39.8737 178.961 40.1797C178.596 40.4792 178.15 40.7233 177.623 40.9121C177.102 41.1009 176.497 41.1953 175.807 41.1953ZM198.365 26.7812V41H195.914L189.537 30.8145V41H187.086V26.7812H189.537L195.934 36.9863V26.7812H198.365ZM200.602 35.834V35.6094C200.602 34.8477 200.712 34.1413 200.934 33.4902C201.155 32.8327 201.474 32.263 201.891 31.7812C202.314 31.293 202.828 30.9154 203.434 30.6484C204.046 30.375 204.736 30.2383 205.504 30.2383C206.279 30.2383 206.969 30.375 207.574 30.6484C208.186 30.9154 208.704 31.293 209.127 31.7812C209.55 32.263 209.872 32.8327 210.094 33.4902C210.315 34.1413 210.426 34.8477 210.426 35.6094V35.834C210.426 36.5957 210.315 37.3021 210.094 37.9531C209.872 38.6042 209.55 39.1738 209.127 39.6621C208.704 40.1439 208.189 40.5215 207.584 40.7949C206.979 41.0618 206.292 41.1953 205.523 41.1953C204.749 41.1953 204.055 41.0618 203.443 40.7949C202.838 40.5215 202.324 40.1439 201.9 39.6621C201.477 39.1738 201.155 38.6042 200.934 37.9531C200.712 37.3021 200.602 36.5957 200.602 35.834ZM202.955 35.6094V35.834C202.955 36.3092 203.004 36.7585 203.102 37.1816C203.199 37.6048 203.352 37.9759 203.561 38.2949C203.769 38.6139 204.036 38.8646 204.361 39.0469C204.687 39.2292 205.074 39.3203 205.523 39.3203C205.96 39.3203 206.337 39.2292 206.656 39.0469C206.982 38.8646 207.249 38.6139 207.457 38.2949C207.665 37.9759 207.818 37.6048 207.916 37.1816C208.02 36.7585 208.072 36.3092 208.072 35.834V35.6094C208.072 35.1406 208.02 34.6979 207.916 34.2812C207.818 33.8581 207.662 33.4837 207.447 33.1582C207.239 32.8327 206.972 32.5788 206.646 32.3965C206.327 32.2077 205.947 32.1133 205.504 32.1133C205.061 32.1133 204.677 32.2077 204.352 32.3965C204.033 32.5788 203.769 32.8327 203.561 33.1582C203.352 33.4837 203.199 33.8581 203.102 34.2812C203.004 34.6979 202.955 35.1406 202.955 35.6094ZM215.27 38.6562L217.711 30.4336H219.215L218.805 32.8945L216.344 41H214.996L215.27 38.6562ZM213.834 30.4336L215.738 38.6953L215.895 41H214.391L211.529 30.4336H213.834ZM221.5 38.5977L223.346 30.4336H225.641L222.789 41H221.285L221.5 38.5977ZM219.469 30.4336L221.881 38.5586L222.184 41H220.836L218.346 32.8848L217.936 30.4336H219.469Z" fill="white"/>
<circle cx="256" cy="34" r="18" fill="white"/>
<path d="M256 24V42M256 24L250 30M256 24L262 30" stroke="black" stroke-width="2" stroke-linecap="round" stroke-linejoin="round"/>
<path d="M47.332 32.5166C48.2627 31.6372 49.7245 31.6572 50.6299 32.5625V32.5635L50.6387 32.5713L64.2188 45.5781C64.4985 45.8461 64.799 46.0714 65.1113 46.2607L67.3438 48.5566C67.6195 48.8403 67.6128 49.2945 67.3291 49.5703L63.9902 52.8164C63.7066 53.0921 63.2533 53.0854 62.9775 52.8018L52.0449 41.5586V57.2842C52.0447 57.6797 51.7237 58 51.3281 58H46.6719C46.2763 58 45.9553 57.6797 45.9551 57.2842V41.2686L34.6484 52.5762C34.3687 52.856 33.9145 52.856 33.6348 52.5762L30.3418 49.2842C30.0621 49.0045 30.0622 48.5503 30.3418 48.2705L31.8018 46.8096C31.9097 46.7238 32.0169 46.6352 32.1201 46.54L47.3271 32.5205L47.332 32.5166ZM51.3281 10C51.7238 10 52.0449 10.3211 52.0449 10.7168V26.5674L63.2705 15.3428C63.5503 15.063 64.0034 15.063 64.2832 15.3428L67.5762 18.6348C67.856 18.9145 67.856 19.3687 67.5762 19.6484L56.2695 30.9551H72.2832C72.6789 30.9551 73 31.2762 73 31.6719V36.3281C73 36.7238 72.6789 37.0449 72.2832 37.0449H68.9736C68.5762 36.9432 68.1576 36.8878 67.7227 36.8867L61.9863 36.873H61.9854C59.9274 36.873 58.5374 36.2102 57.2119 35.1074C56.5382 34.5469 55.8815 33.8728 55.1592 33.1016C54.4422 32.336 53.6599 31.4744 52.7568 30.5713C51.2073 29.0218 49.5368 28.6757 48.0811 28.9092C46.6558 29.1379 45.4683 29.9153 44.7998 30.5674L40.4971 34.8701C38.736 36.6311 36.8607 36.9223 36.2324 36.874L36.2129 36.873H28.3438C27.8579 36.873 27.3949 36.9354 26.957 37.0449H25.7158C25.3203 37.0447 25 36.7237 25 36.3281V31.6719C25 31.2763 25.3203 30.9553 25.7158 30.9551H41.7344L30.5146 19.416C30.2388 19.1323 30.2446 18.6782 30.5283 18.4023L33.8672 15.1562C34.1507 14.8806 34.604 14.8866 34.8799 15.1699L45.9551 26.5596V10.7168C45.9551 10.3211 46.2762 10 46.6719 10H51.3281Z" fill="black"/>
</svg>
