<svg width="24" height="29" viewBox="0 0 24 29" fill="none" xmlns="http://www.w3.org/2000/svg">
<path d="M12 27L5.33333 20.0902C3.8238 18.6908 2.7598 16.8493 2.28213 14.8094C1.80446 12.7695 1.93562 10.6273 2.65828 8.66637C3.38093 6.70543 4.66101 5.01814 6.32912 3.82775C7.99723 2.63736 9.97475 2 12 2C14.0252 2 16.0028 2.63736 17.6709 3.82775C19.339 5.01814 20.6191 6.70543 21.3417 8.66637C22.0644 10.6273 22.1955 12.7695 21.7179 14.8094C21.2402 16.8493 20.1762 18.6908 18.6667 20.0902L12 27Z" fill="#909090" fill-opacity="0.51" stroke="#929292" stroke-width="2.14713" stroke-linecap="round" stroke-linejoin="round"/>
<circle cx="12" cy="12" r="8" fill="#365D7C"/>
<path d="M12 7.125C11.0358 7.125 10.0933 7.41091 9.2916 7.94659C8.48991 8.48226 7.86507 9.24363 7.49609 10.1344C7.12711 11.0252 7.03057 12.0054 7.21867 12.9511C7.40678 13.8967 7.87108 14.7654 8.55286 15.4471C9.23464 16.1289 10.1033 16.5932 11.0489 16.7813C11.9946 16.9694 12.9748 16.8729 13.8656 16.5039C14.7564 16.1349 15.5177 15.5101 16.0534 14.7084C16.5891 13.9067 16.875 12.9642 16.875 12C16.8736 10.7075 16.3596 9.46831 15.4456 8.55436C14.5317 7.64042 13.2925 7.12636 12 7.125ZM8.83125 9.36188L9.63141 10.162C9.30013 10.5858 9.08958 11.0913 9.02203 11.625H7.89235C7.96771 10.7927 8.29527 10.0031 8.83125 9.36188ZM7.89235 12.375H9.02438C9.09193 12.9087 9.30248 13.4142 9.63375 13.838L8.83125 14.6381C8.29527 13.9969 7.96771 13.2073 7.89235 12.375ZM11.625 16.1077C10.7928 16.0327 10.0033 15.7056 9.36188 15.1702L10.162 14.37C10.5863 14.6999 11.0917 14.9092 11.625 14.9756V16.1077ZM11.625 9.02437C11.0913 9.09193 10.5859 9.30248 10.162 9.63375L9.36188 8.83125C10.0033 8.29577 10.7928 7.96872 11.625 7.89375V9.02437ZM16.1077 11.625H14.9756C14.9088 11.0916 14.699 10.5861 14.3686 10.162L15.1688 9.36188C15.7047 10.0031 16.0323 10.7927 16.1077 11.625ZM12.375 7.89234C13.2072 7.96731 13.9967 8.29437 14.6381 8.82984L13.838 9.63141C13.4142 9.30013 12.9087 9.08958 12.375 9.02203V7.89234ZM12.375 16.1077V14.9756C12.9084 14.9088 13.4139 14.699 13.838 14.3686L14.6381 15.1688C13.9969 15.7047 13.2073 16.0323 12.375 16.1077ZM15.1688 14.6381L14.3686 13.838C14.699 13.4139 14.9088 12.9084 14.9756 12.375H16.1077C16.0323 13.2073 15.7047 13.9969 15.1688 14.6381Z" fill="white"/>
</svg>