<svg width="24" height="29" viewBox="0 0 24 29" fill="none" xmlns="http://www.w3.org/2000/svg">
<path d="M12 27L5.33333 20.0902C3.8238 18.6908 2.7598 16.8493 2.28213 14.8094C1.80446 12.7695 1.93562 10.6273 2.65828 8.66637C3.38093 6.70543 4.66101 5.01814 6.32912 3.82775C7.99723 2.63736 9.97475 2 12 2C14.0252 2 16.0028 2.63736 17.6709 3.82775C19.339 5.01814 20.6191 6.70543 21.3417 8.66637C22.0644 10.6273 22.1955 12.7695 21.7179 14.8094C21.2402 16.8493 20.1762 18.6908 18.6667 20.0902L12 27Z" fill="#909090" fill-opacity="0.51" stroke="#929292" stroke-width="2.14713" stroke-linecap="round" stroke-linejoin="round"/>
<circle cx="12" cy="12" r="8" fill="#365D7C"/>
<g clip-path="url(#clip0_1_4)">
<path d="M13.5625 9.96873C13.5625 10.0614 13.535 10.1521 13.4835 10.2292C13.432 10.3062 13.3588 10.3663 13.2731 10.4018C13.1874 10.4373 13.0932 10.4466 13.0023 10.4285C12.9113 10.4104 12.8278 10.3657 12.7623 10.3002C12.6967 10.2346 12.6521 10.1511 12.634 10.0602C12.6159 9.96925 12.6252 9.875 12.6607 9.78935C12.6961 9.7037 12.7562 9.63049 12.8333 9.57898C12.9104 9.52747 13.001 9.49998 13.0937 9.49998C13.218 9.49998 13.3373 9.54937 13.4252 9.63727C13.5131 9.72518 13.5625 9.84441 13.5625 9.96873ZM15.4656 12.6109C14.709 13.9742 13.3 14.7109 11.2765 14.8023L10.4172 16.8105C10.393 16.8669 10.3528 16.9149 10.3015 16.9486C10.2503 16.9823 10.1902 17.0002 10.1289 17H10.109C10.0446 16.9959 9.98299 16.9721 9.9327 16.9317C9.88241 16.8912 9.84587 16.8362 9.82809 16.7742L9.24997 14.7496L7.22653 14.1703C7.16433 14.1528 7.10908 14.1165 7.06837 14.0663C7.02766 14.0162 7.00351 13.9546 6.99922 13.8902C6.99494 13.8257 7.01074 13.7615 7.04445 13.7064C7.07816 13.6513 7.12813 13.6079 7.18747 13.5824L9.19567 12.723C9.28747 10.7004 10.0242 9.29178 11.3867 8.53475C12.3535 7.99803 13.4468 7.916 14.1945 7.94178C14.9226 7.96678 15.6008 8.10858 15.7125 8.17615C15.7581 8.20304 15.7961 8.24108 15.823 8.2867C15.889 8.39803 16.0312 9.07615 16.0574 9.80428C16.084 10.5504 16.0023 11.6441 15.4656 12.6109ZM15.2976 8.70193C14.7449 8.58475 12.7937 8.27225 11.3797 9.27811C11.1456 9.4451 10.9354 9.64314 10.7547 9.86678C10.7399 10.0708 10.7698 10.2757 10.8423 10.467C10.9148 10.6583 11.0282 10.8315 11.1746 10.9745C11.3209 11.1174 11.4967 11.2268 11.6897 11.2948C11.8826 11.3628 12.0881 11.3879 12.2918 11.3683C12.3376 11.3639 12.3839 11.3697 12.4273 11.3853C12.4707 11.4009 12.5101 11.4258 12.5427 11.4584C12.5753 11.491 12.6003 11.5304 12.6158 11.5738C12.6314 11.6172 12.6372 11.6635 12.6328 11.7094C12.6132 11.9131 12.6384 12.1186 12.7065 12.3116C12.7747 12.5046 12.8841 12.6805 13.0272 12.8268C13.1703 12.9731 13.3436 13.0865 13.535 13.1589C13.7265 13.2313 13.9314 13.2611 14.1355 13.2461C14.3583 13.0653 14.5555 12.8551 14.7215 12.6211C15.7273 11.2082 15.4148 9.25545 15.2976 8.70193Z" fill="white"/>
</g>
<defs>
<clipPath id="clip0_1_4">
<rect width="10" height="10" fill="white" transform="translate(7 7)"/>
</clipPath>
</defs>
</svg>