<svg width="24" height="29" viewBox="0 0 24 29" fill="none" xmlns="http://www.w3.org/2000/svg">
<path d="M12 27L5.33333 20.0902C3.8238 18.6908 2.7598 16.8493 2.28213 14.8094C1.80446 12.7695 1.93562 10.6273 2.65828 8.66637C3.38093 6.70543 4.66101 5.01814 6.32912 3.82775C7.99723 2.63736 9.97475 2 12 2C14.0252 2 16.0028 2.63736 17.6709 3.82775C19.339 5.01814 20.6191 6.70543 21.3417 8.66637C22.0644 10.6273 22.1955 12.7695 21.7179 14.8094C21.2402 16.8493 20.1762 18.6908 18.6667 20.0902L12 27Z" fill="#909090" fill-opacity="0.51" stroke="#929292" stroke-width="2.14713" stroke-linecap="round" stroke-linejoin="round"/>
<circle cx="12" cy="12" r="8" fill="#365D7C"/>
<path d="M15.4375 9.8125H8.25V8.875C8.25 8.79212 8.21708 8.71263 8.15847 8.65403C8.09987 8.59542 8.02038 8.5625 7.9375 8.5625C7.85462 8.5625 7.77513 8.59542 7.71653 8.65403C7.65792 8.71263 7.625 8.79212 7.625 8.875V15.125C7.625 15.2079 7.65792 15.2874 7.71653 15.346C7.77513 15.4046 7.85462 15.4375 7.9375 15.4375C8.02038 15.4375 8.09987 15.4046 8.15847 15.346C8.21708 15.2874 8.25 15.2079 8.25 15.125V13.875H16.375V15.125C16.375 15.2079 16.4079 15.2874 16.4665 15.346C16.5251 15.4046 16.6046 15.4375 16.6875 15.4375C16.7704 15.4375 16.8499 15.4046 16.9085 15.346C16.9671 15.2874 17 15.2079 17 15.125V11.375C17 10.9606 16.8354 10.5632 16.5424 10.2701C16.2493 9.97712 15.8519 9.8125 15.4375 9.8125ZM8.25 10.4375H11.0625V13.25H8.25V10.4375Z" fill="white"/>
</svg>
