<svg width="24" height="29" viewBox="0 0 24 29" fill="none" xmlns="http://www.w3.org/2000/svg">
<path d="M12 27L5.33333 20.0902C3.8238 18.6908 2.7598 16.8493 2.28213 14.8094C1.80446 12.7695 1.93562 10.6273 2.65828 8.66637C3.38093 6.70543 4.66101 5.01814 6.32912 3.82775C7.99723 2.63736 9.97475 2 12 2C14.0252 2 16.0028 2.63736 17.6709 3.82775C19.339 5.01814 20.6191 6.70543 21.3417 8.66637C22.0644 10.6273 22.1955 12.7695 21.7179 14.8094C21.2402 16.8493 20.1762 18.6908 18.6667 20.0902L12 27Z" fill="#909090" fill-opacity="0.51" stroke="#929292" stroke-width="2.14713" stroke-linecap="round" stroke-linejoin="round"/>
<circle cx="12" cy="12" r="8" fill="#365D7C"/>
<path d="M12.375 11.9728V16.875C12.375 16.9745 12.3355 17.0699 12.2652 17.1402C12.1948 17.2105 12.0995 17.25 12 17.25C11.9005 17.25 11.8052 17.2105 11.7348 17.1402C11.6645 17.0699 11.625 16.9745 11.625 16.875V11.9728C10.9682 11.878 10.3716 11.5379 9.95539 11.021C9.53918 10.5041 9.33422 9.84872 9.38174 9.18677C9.42927 8.52482 9.72576 7.90545 10.2115 7.45329C10.6973 7.00113 11.3364 6.74976 12 6.74976C12.6637 6.74976 13.3027 7.00113 13.7885 7.45329C14.2742 7.90545 14.5707 8.52482 14.6183 9.18677C14.6658 9.84872 14.4608 10.5041 14.0446 11.021C13.6284 11.5379 13.0318 11.878 12.375 11.9728Z" fill="white"/>
</svg>