<svg width="163" height="164" viewBox="0 0 163 164" fill="none" xmlns="http://www.w3.org/2000/svg">
<path d="M75.1011 75.8433C78.7294 72.4139 84.4281 72.494 87.9576 76.0249V76.0259L87.9663 76.0337L121.052 107.723L143.809 131.127C144.745 132.09 144.723 133.628 143.761 134.564L132.435 145.578C131.473 146.513 129.934 146.491 128.999 145.529L91.9097 107.383V160.733C91.9096 162.075 90.8221 163.162 89.48 163.163H73.6822C72.34 163.163 71.2516 162.075 71.2515 160.733V106.405L32.8941 144.763C31.9449 145.712 30.4057 145.712 29.4566 144.763L18.2857 133.593C17.3366 132.644 17.3367 131.105 18.2857 130.156L43.0728 105.368L75.0962 75.8472L75.1011 75.8433ZM89.48 0.325684C90.8221 0.325866 91.9097 1.41418 91.9097 2.75635V56.5317L129.993 18.4497C130.942 17.5007 132.48 17.5006 133.429 18.4497L144.6 29.6206C145.549 30.5697 145.549 32.1081 144.6 33.0571L106.242 71.4155H160.569C161.911 71.4155 162.999 72.5031 163 73.8452V89.6431C163 90.9853 161.911 92.0737 160.569 92.0737H119.658C115.381 91.1327 111.951 89.1516 108.673 86.4243C106.326 84.4712 104.056 82.1362 101.603 79.5171C99.1553 76.9037 96.5246 74.007 93.479 70.9614C88.5015 65.9839 83.2251 64.9233 78.6538 65.6567C74.1129 66.3854 70.301 68.8761 68.1685 70.9565L68.1646 70.9614L53.5816 85.5435C49.8118 89.3132 45.8631 91.2079 42.7847 92.0737H2.59232C1.25016 92.0736 0.162628 90.9853 0.162628 89.6431V73.8452C0.16282 72.5032 1.25028 71.4157 2.59232 71.4155H56.9351L18.8697 32.2671C17.9339 31.3047 17.9552 29.7663 18.9175 28.8306L30.2437 17.8179C31.206 16.8822 32.7445 16.9036 33.6802 17.8657L71.2515 56.5054V2.75635C71.2515 1.41407 72.3399 0.325684 73.6822 0.325684H89.48Z" fill="#272727"/>
</svg>
