<svg width="24" height="29" viewBox="0 0 24 29" fill="none" xmlns="http://www.w3.org/2000/svg">
<path d="M12 27L5.33333 20.0902C3.8238 18.6908 2.7598 16.8493 2.28213 14.8094C1.80446 12.7695 1.93562 10.6273 2.65828 8.66637C3.38093 6.70543 4.66101 5.01814 6.32912 3.82775C7.99723 2.63736 9.97475 2 12 2C14.0252 2 16.0028 2.63736 17.6709 3.82775C19.339 5.01814 20.6191 6.70543 21.3417 8.66637C22.0644 10.6273 22.1955 12.7695 21.7179 14.8094C21.2402 16.8493 20.1762 18.6908 18.6667 20.0902L12 27Z" fill="#909090" fill-opacity="0.51" stroke="#929292" stroke-width="2.14713" stroke-linecap="round" stroke-linejoin="round"/>
<circle cx="12" cy="12" r="8" fill="#365D7C"/>
<path d="M15.9375 10.5C15.7688 10.4991 15.6015 10.5309 15.4449 10.5938L14.0157 8.80969C14.1331 8.64048 14.2091 8.44599 14.2375 8.24196C14.2659 8.03793 14.2458 7.83009 14.179 7.63524C14.1122 7.44039 14.0004 7.26402 13.8527 7.12038C13.7051 6.97674 13.5257 6.86987 13.3291 6.80842C13.1325 6.74697 12.9241 6.73266 12.721 6.76665C12.5178 6.80064 12.3255 6.88197 12.1596 7.00407C11.9937 7.12617 11.8588 7.28561 11.766 7.46948C11.6731 7.65336 11.6248 7.85651 11.625 8.0625C11.625 8.10853 11.6274 8.15453 11.6321 8.20031L9.45378 9.10782C9.32256 8.94687 9.15503 8.81936 8.96495 8.73575C8.77487 8.65215 8.56766 8.61484 8.36036 8.62689C8.15305 8.63894 7.95156 8.70001 7.77245 8.80508C7.59333 8.91014 7.44171 9.05621 7.33002 9.23127C7.21834 9.40633 7.14978 9.6054 7.13 9.81211C7.11021 10.0188 7.13975 10.2273 7.21619 10.4203C7.29264 10.6134 7.4138 10.7856 7.56973 10.9227C7.72566 11.0599 7.9119 11.1581 8.11315 11.2092L8.19987 13.3833C8.00116 13.4511 7.82163 13.5657 7.67635 13.7173C7.53107 13.8689 7.42428 14.0531 7.36495 14.2545C7.30563 14.456 7.29549 14.6687 7.3354 14.8748C7.37531 15.081 7.46409 15.2745 7.5943 15.4393C7.72451 15.604 7.89234 15.7351 8.0837 15.8215C8.27506 15.908 8.48437 15.9472 8.69405 15.936C8.90372 15.9248 9.10765 15.8634 9.28871 15.7571C9.46976 15.6508 9.62266 15.5025 9.73456 15.3248L12 15.9595C12.0032 16.1706 12.0573 16.3779 12.1576 16.5636C12.258 16.7494 12.4017 16.9082 12.5765 17.0265C12.7513 17.1449 12.9521 17.2194 13.1618 17.2436C13.3716 17.2678 13.584 17.2411 13.7812 17.1657C13.9784 17.0902 14.1545 16.9684 14.2946 16.8104C14.4346 16.6524 14.5345 16.4629 14.5857 16.2581C14.6369 16.0533 14.6379 15.8391 14.5887 15.6338C14.5395 15.4285 14.4415 15.2381 14.303 15.0788L15.5785 13.0748C15.759 13.1262 15.9484 13.1383 16.134 13.1103C16.3196 13.0822 16.497 13.0147 16.6543 12.9122C16.8116 12.8097 16.945 12.6747 17.0457 12.5163C17.1463 12.3579 17.2118 12.1797 17.2378 11.9938C17.2637 11.8079 17.2494 11.6186 17.196 11.4387C17.1425 11.2587 17.0511 11.0924 16.9278 10.9508C16.8046 10.8092 16.6524 10.6957 16.4816 10.6179C16.3108 10.5402 16.1252 10.5 15.9375 10.5ZM13.3125 14.625H13.2708L12.5124 12.3502L14.6991 12.2461C14.7544 12.401 14.8383 12.5441 14.9466 12.668L13.6711 14.6719C13.5543 14.6398 13.4337 14.624 13.3125 14.625ZM8.9494 13.3533L8.86269 11.1792C9.03947 11.1183 9.20121 11.0204 9.33706 10.8919L11.3307 12.0469L9.38722 13.5572C9.25515 13.4627 9.1067 13.3936 8.9494 13.3533ZM13.0111 9.375C13.155 9.36714 13.2966 9.33546 13.4302 9.28125L14.8594 11.0653C14.7682 11.1962 14.7018 11.3427 14.6635 11.4975L12.4805 11.6016L13.0111 9.375ZM9.848 14.1492L11.8125 12.6216L12.5597 14.8636C12.4174 14.9639 12.2964 15.0914 12.2035 15.2386L9.93753 14.603C9.93478 14.4476 9.90447 14.294 9.848 14.1492ZM12.9375 7.5C13.0488 7.5 13.1575 7.53299 13.25 7.5948C13.3425 7.65661 13.4146 7.74446 13.4572 7.84724C13.4998 7.95003 13.5109 8.06313 13.4892 8.17224C13.4675 8.28136 13.4139 8.38158 13.3353 8.46025C13.2566 8.53892 13.1564 8.59249 13.0473 8.61419C12.9382 8.6359 12.8251 8.62476 12.7223 8.58218C12.6195 8.53961 12.5316 8.46751 12.4698 8.37501C12.408 8.28251 12.375 8.17375 12.375 8.0625C12.375 7.91332 12.4343 7.77024 12.5398 7.66475C12.6453 7.55927 12.7883 7.5 12.9375 7.5ZM11.9213 8.89219C12.0221 9.01501 12.144 9.11883 12.2813 9.19875L11.7516 11.423L9.71394 10.2431C9.73791 10.143 9.75003 10.0404 9.75003 9.9375C9.75005 9.89147 9.7477 9.84548 9.743 9.79969L11.9213 8.89219ZM7.87503 9.9375C7.87503 9.82625 7.90802 9.7175 7.96983 9.62499C8.03164 9.53249 8.11949 9.46039 8.22227 9.41782C8.32505 9.37525 8.43815 9.36411 8.54727 9.38581C8.65638 9.40752 8.75661 9.46109 8.83528 9.53975C8.91394 9.61842 8.96752 9.71865 8.98922 9.82776C9.01093 9.93688 8.99979 10.05 8.95721 10.1528C8.91464 10.2555 8.84254 10.3434 8.75004 10.4052C8.65754 10.467 8.54878 10.5 8.43753 10.5C8.28835 10.5 8.14527 10.4407 8.03978 10.3353C7.93429 10.2298 7.87503 10.0867 7.87503 9.9375ZM8.62503 15.1875C8.51378 15.1875 8.40502 15.1545 8.31252 15.0927C8.22002 15.0309 8.14792 14.943 8.10535 14.8403C8.06277 14.7375 8.05163 14.6244 8.07334 14.5153C8.09504 14.4062 8.14862 14.3059 8.22728 14.2273C8.30595 14.1486 8.40618 14.095 8.51529 14.0733C8.62441 14.0516 8.73751 14.0627 8.84029 14.1053C8.94307 14.1479 9.03092 14.22 9.09273 14.3125C9.15454 14.405 9.18753 14.5138 9.18753 14.625C9.18753 14.7742 9.12827 14.9173 9.02278 15.0227C8.91729 15.1282 8.77421 15.1875 8.62503 15.1875ZM13.3125 16.5C13.2013 16.5 13.0925 16.467 13 16.4052C12.9075 16.3434 12.8354 16.2555 12.7928 16.1528C12.7503 16.05 12.7391 15.9369 12.7608 15.8278C12.7825 15.7187 12.8361 15.6184 12.9148 15.5398C12.9934 15.4611 13.0937 15.4075 13.2028 15.3858C13.3119 15.3641 13.425 15.3752 13.5278 15.4178C13.6306 15.4604 13.7184 15.5325 13.7802 15.625C13.842 15.7175 13.875 15.8263 13.875 15.9375C13.875 16.0867 13.8158 16.2298 13.7103 16.3352C13.6048 16.4407 13.4617 16.5 13.3125 16.5ZM15.9375 12.375C15.8263 12.375 15.7175 12.342 15.625 12.2802C15.5325 12.2184 15.4604 12.1305 15.4178 12.0278C15.3753 11.925 15.3641 11.8119 15.3858 11.7028C15.4075 11.5936 15.4611 11.4934 15.5398 11.4148C15.6184 11.3361 15.7187 11.2825 15.8278 11.2608C15.9369 11.2391 16.05 11.2502 16.1528 11.2928C16.2556 11.3354 16.3434 11.4075 16.4052 11.5C16.467 11.5925 16.5 11.7013 16.5 11.8125C16.5 11.9617 16.4408 12.1048 16.3353 12.2102C16.2298 12.3157 16.0867 12.375 15.9375 12.375Z" fill="white"/>
</svg>
