<svg width="24" height="29" viewBox="0 0 24 29" fill="none" xmlns="http://www.w3.org/2000/svg">
<path d="M12 27L5.33333 20.0902C3.8238 18.6908 2.7598 16.8493 2.28213 14.8094C1.80446 12.7695 1.93562 10.6273 2.65828 8.66637C3.38093 6.70543 4.66101 5.01814 6.32912 3.82775C7.99723 2.63736 9.97475 2 12 2C14.0252 2 16.0028 2.63736 17.6709 3.82775C19.339 5.01814 20.6191 6.70543 21.3417 8.66637C22.0644 10.6273 22.1955 12.7695 21.7179 14.8094C21.2402 16.8493 20.1762 18.6908 18.6667 20.0902L12 27Z" fill="#909090" fill-opacity="0.51" stroke="#929292" stroke-width="2.14713" stroke-linecap="round" stroke-linejoin="round"/>
<circle cx="12" cy="12" r="8" fill="#365D7C"/>
<path d="M15.4375 10.4375H14.8125V9.8125C14.8125 9.3981 14.6479 9.00067 14.3549 8.70765C14.0618 8.41462 13.6644 8.25 13.25 8.25H12.8133C12.348 7.85156 11.7195 7.625 11.0625 7.625C9.68398 7.625 8.5625 8.60625 8.5625 9.8125V15.125C8.5625 15.2908 8.62835 15.4497 8.74556 15.5669C8.86277 15.6842 9.02174 15.75 9.1875 15.75H14.1875C14.3533 15.75 14.5122 15.6842 14.6294 15.5669C14.7467 15.4497 14.8125 15.2908 14.8125 15.125V14.8125H15.4375C15.6861 14.8125 15.9246 14.7137 16.1004 14.5379C16.2762 14.3621 16.375 14.1236 16.375 13.875V11.375C16.375 11.1264 16.2762 10.8879 16.1004 10.7121C15.9246 10.5363 15.6861 10.4375 15.4375 10.4375ZM11.0625 14.1875C11.0625 14.2704 11.0296 14.3499 10.971 14.4085C10.9124 14.4671 10.8329 14.5 10.75 14.5C10.6671 14.5 10.5876 14.4671 10.529 14.4085C10.4704 14.3499 10.4375 14.2704 10.4375 14.1875V11.0625C10.4375 10.9796 10.4704 10.9001 10.529 10.8415C10.5876 10.7829 10.6671 10.75 10.75 10.75C10.8329 10.75 10.9124 10.7829 10.971 10.8415C11.0296 10.9001 11.0625 10.9796 11.0625 11.0625V14.1875ZM12.9375 14.1875C12.9375 14.2704 12.9046 14.3499 12.846 14.4085C12.7874 14.4671 12.7079 14.5 12.625 14.5C12.5421 14.5 12.4626 14.4671 12.404 14.4085C12.3454 14.3499 12.3125 14.2704 12.3125 14.1875V11.0625C12.3125 10.9796 12.3454 10.9001 12.404 10.8415C12.4626 10.7829 12.5421 10.75 12.625 10.75C12.7079 10.75 12.7874 10.7829 12.846 10.8415C12.9046 10.9001 12.9375 10.9796 12.9375 11.0625V14.1875ZM9.22656 9.5C9.40078 8.7875 10.1582 8.25 11.0625 8.25C11.6043 8.25 12.1195 8.44531 12.477 8.78828C12.5351 8.84393 12.6125 8.87499 12.693 8.875H13.25C13.4438 8.87506 13.6329 8.93519 13.7911 9.04712C13.9493 9.15904 14.069 9.31726 14.1336 9.5H9.22656ZM15.75 13.875C15.75 13.9579 15.7171 14.0374 15.6585 14.096C15.5999 14.1546 15.5204 14.1875 15.4375 14.1875H14.8125V11.0625H15.4375C15.5204 11.0625 15.5999 11.0954 15.6585 11.154C15.7171 11.2126 15.75 11.2921 15.75 11.375V13.875Z" fill="white"/>
</svg>