<svg width="24" height="29" viewBox="0 0 24 29" fill="none" xmlns="http://www.w3.org/2000/svg">
<path d="M12 27L5.33333 20.0902C3.8238 18.6908 2.7598 16.8493 2.28213 14.8094C1.80446 12.7695 1.93562 10.6273 2.65828 8.66637C3.38093 6.70543 4.66101 5.01814 6.32912 3.82775C7.99723 2.63736 9.97475 2 12 2C14.0252 2 16.0028 2.63736 17.6709 3.82775C19.339 5.01814 20.6191 6.70543 21.3417 8.66637C22.0644 10.6273 22.1955 12.7695 21.7179 14.8094C21.2402 16.8493 20.1762 18.6908 18.6667 20.0902L12 27Z" fill="#909090" fill-opacity="0.51" stroke="#929292" stroke-width="2.14713" stroke-linecap="round" stroke-linejoin="round"/>
<circle cx="12" cy="12" r="8" fill="#365D7C"/>
<path d="M15.4375 8.25V14.5C15.4375 14.5829 15.4046 14.6624 15.346 14.721C15.2874 14.7796 15.2079 14.8125 15.125 14.8125H9.8125C9.64674 14.8125 9.48777 14.8783 9.37056 14.9956C9.25335 15.1128 9.1875 15.2717 9.1875 15.4375H14.5C14.5829 15.4375 14.6624 15.4704 14.721 15.529C14.7796 15.5876 14.8125 15.6671 14.8125 15.75C14.8125 15.8329 14.7796 15.9124 14.721 15.971C14.6624 16.0296 14.5829 16.0625 14.5 16.0625H8.875C8.79212 16.0625 8.71263 16.0296 8.65403 15.971C8.59542 15.9124 8.5625 15.8329 8.5625 15.75V9.1875C8.5625 8.85598 8.6942 8.53804 8.92862 8.30362C9.16304 8.0692 9.48098 7.9375 9.8125 7.9375H15.125C15.2079 7.9375 15.2874 7.97042 15.346 8.02903C15.4046 8.08763 15.4375 8.16712 15.4375 8.25Z" fill="white"/>
</svg>