<svg width="24" height="29" viewBox="0 0 24 29" fill="none" xmlns="http://www.w3.org/2000/svg">
<path d="M12 27L5.33333 20.0902C3.8238 18.6908 2.7598 16.8493 2.28213 14.8094C1.80446 12.7695 1.93562 10.6273 2.65828 8.66637C3.38093 6.70543 4.66101 5.01814 6.32912 3.82775C7.99723 2.63736 9.97475 2 12 2C14.0252 2 16.0028 2.63736 17.6709 3.82775C19.339 5.01814 20.6191 6.70543 21.3417 8.66637C22.0644 10.6273 22.1955 12.7695 21.7179 14.8094C21.2402 16.8493 20.1762 18.6908 18.6667 20.0902L12 27Z" fill="#909090" fill-opacity="0.51" stroke="#929292" stroke-width="2.14713" stroke-linecap="round" stroke-linejoin="round"/>
<circle cx="12" cy="12" r="8" fill="#365D7C"/>
<g clip-path="url(#clip0_1_4)">
<path d="M14.8125 9.5V14.5C14.8125 14.6658 14.7466 14.8247 14.6294 14.9419C14.5122 15.0592 14.3532 15.125 14.1875 15.125H13.5625C13.3967 15.125 13.2377 15.0592 13.1205 14.9419C13.0033 14.8247 12.9375 14.6658 12.9375 14.5V12.3125H11.0625V14.5C11.0625 14.6658 10.9966 14.8247 10.8794 14.9419C10.7622 15.0592 10.6032 15.125 10.4375 15.125H9.81245C9.64669 15.125 9.48772 15.0592 9.37051 14.9419C9.2533 14.8247 9.18745 14.6658 9.18745 14.5V9.5C9.18745 9.33424 9.2533 9.17527 9.37051 9.05806C9.48772 8.94085 9.64669 8.875 9.81245 8.875H10.4375C10.6032 8.875 10.7622 8.94085 10.8794 9.05806C10.9966 9.17527 11.0625 9.33424 11.0625 9.5V11.6875H12.9375V9.5C12.9375 9.33424 13.0033 9.17527 13.1205 9.05806C13.2377 8.94085 13.3967 8.875 13.5625 8.875H14.1875C14.3532 8.875 14.5122 8.94085 14.6294 9.05806C14.7466 9.17527 14.8125 9.33424 14.8125 9.5ZM8.4062 9.8125H8.24995C8.08419 9.8125 7.92522 9.87835 7.80801 9.99556C7.6908 10.1128 7.62495 10.2717 7.62495 10.4375V11.6875H7.323C7.24225 11.6863 7.16403 11.7157 7.1041 11.7699C7.04417 11.824 7.00696 11.8988 6.99995 11.9793C6.99712 12.022 7.0031 12.0649 7.01753 12.1053C7.03195 12.1456 7.05452 12.1825 7.08383 12.2138C7.11313 12.245 7.14855 12.2699 7.18788 12.2869C7.22721 12.3039 7.26961 12.3126 7.31245 12.3125H7.62495V13.5625C7.62495 13.7283 7.6908 13.8872 7.80801 14.0044C7.92522 14.1217 8.08419 14.1875 8.24995 14.1875H8.4062C8.44764 14.1875 8.48739 14.171 8.51669 14.1417C8.54599 14.1124 8.56245 14.0727 8.56245 14.0312V9.96875C8.56245 9.92731 8.54599 9.88757 8.51669 9.85826C8.48739 9.82896 8.44764 9.8125 8.4062 9.8125ZM17 11.9793C16.993 11.899 16.9559 11.8243 16.8961 11.7701C16.8363 11.716 16.7583 11.6865 16.6777 11.6875H16.375V10.4375C16.375 10.2717 16.3091 10.1128 16.1919 9.99556C16.0747 9.87835 15.9157 9.8125 15.75 9.8125H15.5937C15.5523 9.8125 15.5125 9.82896 15.4832 9.85826C15.4539 9.88757 15.4375 9.92731 15.4375 9.96875V14.0312C15.4375 14.0727 15.4539 14.1124 15.4832 14.1417C15.5125 14.171 15.5523 14.1875 15.5937 14.1875H15.75C15.9157 14.1875 16.0747 14.1217 16.1919 14.0044C16.3091 13.8872 16.375 13.7283 16.375 13.5625V12.3125H16.6875C16.7303 12.3126 16.7727 12.3039 16.812 12.2869C16.8514 12.2699 16.8868 12.245 16.9161 12.2138C16.9454 12.1825 16.968 12.1456 16.9824 12.1053C16.9968 12.0649 17.0028 12.022 17 11.9793Z" fill="white"/>
</g>
<defs>
<clipPath id="clip0_1_4">
<rect width="10" height="10" fill="white" transform="translate(7 7)"/>
</clipPath>
</defs>
</svg>