<svg width="24" height="29" viewBox="0 0 24 29" fill="none" xmlns="http://www.w3.org/2000/svg">
<path d="M12 27L5.33333 20.0902C3.8238 18.6908 2.7598 16.8493 2.28213 14.8094C1.80446 12.7695 1.93562 10.6273 2.65828 8.66637C3.38093 6.70543 4.66101 5.01814 6.32912 3.82775C7.99723 2.63736 9.97475 2 12 2C14.0252 2 16.0028 2.63736 17.6709 3.82775C19.339 5.01814 20.6191 6.70543 21.3417 8.66637C22.0644 10.6273 22.1955 12.7695 21.7179 14.8094C21.2402 16.8493 20.1762 18.6908 18.6667 20.0902L12 27Z" fill="#909090" fill-opacity="0.51" stroke="#929292" stroke-width="2.14713" stroke-linecap="round" stroke-linejoin="round"/>
<circle cx="12" cy="12" r="8" fill="#365D7C"/>
<g clip-path="url(#clip0_1_4)">
<path d="M16.125 7.875H7.875C7.67609 7.875 7.48532 7.95402 7.34467 8.09467C7.20402 8.23532 7.125 8.42609 7.125 8.625V15.375C7.125 15.5739 7.20402 15.7647 7.34467 15.9053C7.48532 16.046 7.67609 16.125 7.875 16.125H16.125C16.3239 16.125 16.5147 16.046 16.6553 15.9053C16.796 15.7647 16.875 15.5739 16.875 15.375V8.625C16.875 8.42609 16.796 8.23532 16.6553 8.09467C16.5147 7.95402 16.3239 7.875 16.125 7.875ZM7.875 10.125H11.625V13.875H7.875V10.125ZM12.375 9.375V8.625H13.875V9.375H12.375ZM11.625 9.375H10.125V8.625H11.625V9.375ZM11.625 14.625V15.375H10.125V14.625H11.625ZM12.375 14.625H13.875V15.375H12.375V14.625ZM12.375 13.875V10.125H16.125V13.875H12.375ZM16.125 9.375H14.625V8.625H16.125V9.375ZM9.375 8.625V9.375H7.875V8.625H9.375ZM7.875 14.625H9.375V15.375H7.875V14.625ZM16.125 15.375H14.625V14.625H16.125V15.375Z" fill="white"/>
</g>
<defs>
<clipPath id="clip0_1_4">
<rect width="12" height="12" fill="white" transform="translate(6 6)"/>
</clipPath>
</defs>
</svg>
