<svg width="24" height="29" viewBox="0 0 24 29" fill="none" xmlns="http://www.w3.org/2000/svg">
<path d="M12 27L5.33333 20.0902C3.8238 18.6908 2.7598 16.8493 2.28213 14.8094C1.80446 12.7695 1.93562 10.6273 2.65828 8.66637C3.38093 6.70543 4.66101 5.01814 6.32912 3.82775C7.99723 2.63736 9.97475 2 12 2C14.0252 2 16.0028 2.63736 17.6709 3.82775C19.339 5.01814 20.6191 6.70543 21.3417 8.66637C22.0644 10.6273 22.1955 12.7695 21.7179 14.8094C21.2402 16.8493 20.1762 18.6908 18.6667 20.0902L12 27Z" fill="#909090" fill-opacity="0.51" stroke="#929292" stroke-width="2.14713" stroke-linecap="round" stroke-linejoin="round"/>
<circle cx="12" cy="12" r="8" fill="#365D7C"/>
<path d="M16.6875 15.125C16.6875 15.2078 16.6546 15.2873 16.596 15.3459C16.5374 15.4045 16.4579 15.4375 16.375 15.4375H7.625C7.54212 15.4375 7.46263 15.4045 7.40403 15.3459C7.34542 15.2873 7.3125 15.2078 7.3125 15.125C7.3125 15.0421 7.34542 14.9626 7.40403 14.904C7.46263 14.8454 7.54212 14.8125 7.625 14.8125H16.375C16.4579 14.8125 16.5374 14.8454 16.596 14.904C16.6546 14.9626 16.6875 15.0421 16.6875 15.125ZM7.63672 10.8351C7.61813 10.7696 7.62147 10.6998 7.64622 10.6363C7.67097 10.5728 7.71578 10.5192 7.77383 10.4835L11.8363 7.98355C11.8856 7.95328 11.9422 7.93726 12 7.93726C12.0578 7.93726 12.1144 7.95328 12.1637 7.98355L16.2262 10.4835C16.2842 10.5191 16.3291 10.5727 16.3539 10.6362C16.3787 10.6996 16.3821 10.7694 16.3635 10.835C16.345 10.9005 16.3056 10.9582 16.2512 10.9993C16.1969 11.0403 16.1306 11.0625 16.0625 11.0625H15.125V13.5625H15.75C15.8329 13.5625 15.9124 13.5954 15.971 13.654C16.0296 13.7126 16.0625 13.7921 16.0625 13.875C16.0625 13.9578 16.0296 14.0373 15.971 14.0959C15.9124 14.1545 15.8329 14.1875 15.75 14.1875H8.25C8.16712 14.1875 8.08763 14.1545 8.02903 14.0959C7.97042 14.0373 7.9375 13.9578 7.9375 13.875C7.9375 13.7921 7.97042 13.7126 8.02903 13.654C8.08763 13.5954 8.16712 13.5625 8.25 13.5625H8.875V11.0625H7.9375C7.86945 11.0625 7.80325 11.0403 7.74896 10.9993C7.69467 10.9582 7.65526 10.9006 7.63672 10.8351ZM12.625 13.25C12.625 13.3328 12.6579 13.4123 12.7165 13.4709C12.7751 13.5295 12.8546 13.5625 12.9375 13.5625C13.0204 13.5625 13.0999 13.5295 13.1585 13.4709C13.2171 13.4123 13.25 13.3328 13.25 13.25V11.375C13.25 11.2921 13.2171 11.2126 13.1585 11.154C13.0999 11.0954 13.0204 11.0625 12.9375 11.0625C12.8546 11.0625 12.7751 11.0954 12.7165 11.154C12.6579 11.2126 12.625 11.2921 12.625 11.375V13.25ZM10.75 13.25C10.75 13.3328 10.7829 13.4123 10.8415 13.4709C10.9001 13.5295 10.9796 13.5625 11.0625 13.5625C11.1454 13.5625 11.2249 13.5295 11.2835 13.4709C11.3421 13.4123 11.375 13.3328 11.375 13.25V11.375C11.375 11.2921 11.3421 11.2126 11.2835 11.154C11.2249 11.0954 11.1454 11.0625 11.0625 11.0625C10.9796 11.0625 10.9001 11.0954 10.8415 11.154C10.7829 11.2126 10.75 11.2921 10.75 11.375V13.25Z" fill="white"/>
</svg>