<svg width="24" height="29" viewBox="0 0 24 29" fill="none" xmlns="http://www.w3.org/2000/svg">
<path d="M12 27L5.33333 20.0902C3.8238 18.6908 2.7598 16.8493 2.28213 14.8094C1.80446 12.7695 1.93562 10.6273 2.65828 8.66637C3.38093 6.70543 4.66101 5.01814 6.32912 3.82775C7.99723 2.63736 9.97475 2 12 2C14.0252 2 16.0028 2.63736 17.6709 3.82775C19.339 5.01814 20.6191 6.70543 21.3417 8.66637C22.0644 10.6273 22.1955 12.7695 21.7179 14.8094C21.2402 16.8493 20.1762 18.6908 18.6667 20.0902L12 27Z" fill="#909090" fill-opacity="0.51" stroke="#929292" stroke-width="2.14713" stroke-linecap="round" stroke-linejoin="round"/>
<circle cx="12" cy="12" r="8" fill="#365D7C"/>
<path d="M16.875 15H15.375V13.875H16.5C16.557 13.875 16.6132 13.862 16.6644 13.837C16.7156 13.812 16.7605 13.7757 16.7955 13.7308C16.8306 13.6859 16.855 13.6335 16.8668 13.5778C16.8786 13.5221 16.8776 13.4644 16.8637 13.4091L15.3637 7.40908C15.3434 7.32799 15.2966 7.25602 15.2307 7.2046C15.1648 7.15317 15.0836 7.12524 15 7.12524C14.9164 7.12524 14.8352 7.15317 14.7693 7.2046C14.7034 7.25602 14.6566 7.32799 14.6363 7.40908L13.1363 13.4091C13.1224 13.4644 13.1214 13.5221 13.1332 13.5778C13.145 13.6335 13.1694 13.6859 13.2045 13.7308C13.2395 13.7757 13.2844 13.812 13.3356 13.837C13.3868 13.862 13.443 13.875 13.5 13.875H14.625V15H11.625V14.25H12C12.0995 14.25 12.1948 14.2105 12.2652 14.1402C12.3355 14.0699 12.375 13.9745 12.375 13.875C12.375 13.7756 12.3355 13.6802 12.2652 13.6099C12.1948 13.5395 12.0995 13.5 12 13.5H11.625V12.75H12C12.0995 12.75 12.1948 12.7105 12.2652 12.6402C12.3355 12.5699 12.375 12.4745 12.375 12.375C12.375 12.2756 12.3355 12.1802 12.2652 12.1099C12.1948 12.0395 12.0995 12 12 12H7.875C7.77554 12 7.68016 12.0395 7.60984 12.1099C7.53951 12.1802 7.5 12.2756 7.5 12.375C7.5 12.4745 7.53951 12.5699 7.60984 12.6402C7.68016 12.7105 7.77554 12.75 7.875 12.75H8.25V13.5H7.875C7.77554 13.5 7.68016 13.5395 7.60984 13.6099C7.53951 13.6802 7.5 13.7756 7.5 13.875C7.5 13.9745 7.53951 14.0699 7.60984 14.1402C7.68016 14.2105 7.77554 14.25 7.875 14.25H8.25V15H7.125C7.02554 15 6.93016 15.0395 6.85983 15.1099C6.78951 15.1802 6.75 15.2756 6.75 15.375C6.75 15.4745 6.78951 15.5699 6.85983 15.6402C6.93016 15.7105 7.02554 15.75 7.125 15.75H16.875C16.9745 15.75 17.0698 15.7105 17.1402 15.6402C17.2105 15.5699 17.25 15.4745 17.25 15.375C17.25 15.2756 17.2105 15.1802 17.1402 15.1099C17.0698 15.0395 16.9745 15 16.875 15ZM10.875 15H9V14.25H10.875V15ZM10.875 13.5H9V12.75H10.875V13.5ZM11.4375 10.5C11.6971 10.5 11.9508 10.423 12.1667 10.2788C12.3825 10.1346 12.5508 9.92962 12.6501 9.68979C12.7494 9.44996 12.7754 9.18606 12.7248 8.93146C12.6741 8.67686 12.5491 8.443 12.3656 8.25944C12.182 8.07588 11.9482 7.95088 11.6936 7.90024C11.439 7.84959 11.1751 7.87559 10.9352 7.97493C10.6954 8.07427 10.4904 8.24249 10.3462 8.45833C10.202 8.67417 10.125 8.92793 10.125 9.18752C10.125 9.53561 10.2633 9.86945 10.5094 10.1156C10.7556 10.3617 11.0894 10.5 11.4375 10.5ZM11.4375 8.62502C11.5488 8.62502 11.6575 8.65801 11.75 8.71982C11.8425 8.78162 11.9146 8.86947 11.9572 8.97226C11.9998 9.07504 12.0109 9.18814 11.9892 9.29726C11.9675 9.40637 11.9139 9.5066 11.8352 9.58527C11.7566 9.66393 11.6564 9.7175 11.5472 9.73921C11.4381 9.76091 11.325 9.74977 11.2222 9.7072C11.1195 9.66463 11.0316 9.59253 10.9698 9.50003C10.908 9.40752 10.875 9.29877 10.875 9.18752C10.875 9.03833 10.9343 8.89526 11.0398 8.78977C11.1452 8.68428 11.2883 8.62502 11.4375 8.62502Z" fill="white"/>
</svg>