<svg width="24" height="29" viewBox="0 0 24 29" fill="none" xmlns="http://www.w3.org/2000/svg">
<path d="M12 27L5.33333 20.0902C3.8238 18.6908 2.7598 16.8493 2.28213 14.8094C1.80446 12.7695 1.93562 10.6273 2.65828 8.66637C3.38093 6.70543 4.66101 5.01814 6.32912 3.82775C7.99723 2.63736 9.97475 2 12 2C14.0252 2 16.0028 2.63736 17.6709 3.82775C19.339 5.01814 20.6191 6.70543 21.3417 8.66637C22.0644 10.6273 22.1955 12.7695 21.7179 14.8094C21.2402 16.8493 20.1762 18.6908 18.6667 20.0902L12 27Z" fill="#909090" fill-opacity="0.51" stroke="#929292" stroke-width="2.14713" stroke-linecap="round" stroke-linejoin="round"/>
<circle cx="12" cy="12" r="8" fill="#365D7C"/>
<path d="M16.125 7.87498V16.5C16.125 16.5994 16.0855 16.6948 16.0152 16.7651C15.9448 16.8355 15.8495 16.875 15.75 16.875C15.6505 16.875 15.5552 16.8355 15.4848 16.7651C15.4145 16.6948 15.375 16.5994 15.375 16.5V14.25H13.125C13.0255 14.25 12.9302 14.2105 12.8598 14.1401C12.7895 14.0698 12.75 13.9744 12.75 13.875C12.7674 12.9767 12.8809 12.0829 13.0884 11.2087C13.5469 9.31076 14.4159 8.03857 15.6023 7.53045C15.6594 7.50602 15.7216 7.49612 15.7833 7.50164C15.8451 7.50716 15.9046 7.52792 15.9564 7.56206C16.0082 7.5962 16.0507 7.64266 16.0801 7.69727C16.1096 7.75189 16.125 7.81295 16.125 7.87498ZM11.6198 7.81357C11.6125 7.76433 11.5954 7.71705 11.5696 7.67448C11.5438 7.63191 11.5098 7.5949 11.4695 7.56562C11.4292 7.53634 11.3836 7.51537 11.3351 7.50393C11.2867 7.49249 11.2364 7.49081 11.1873 7.499C11.1382 7.50718 11.0912 7.52506 11.0491 7.5516C11.007 7.57813 10.9705 7.61279 10.9419 7.65355C10.9134 7.6943 10.8932 7.74035 10.8826 7.78899C10.872 7.83763 10.8711 7.8879 10.8802 7.93686L11.2448 10.125H10.125V7.87498C10.125 7.77552 10.0855 7.68014 10.0152 7.60982C9.94484 7.53949 9.84946 7.49998 9.75 7.49998C9.65054 7.49998 9.55516 7.53949 9.48484 7.60982C9.41451 7.68014 9.375 7.77552 9.375 7.87498V10.125H8.25516L8.61984 7.93686C8.62887 7.8879 8.62805 7.83763 8.61744 7.78899C8.60683 7.74035 8.58664 7.6943 8.55805 7.65355C8.52946 7.61279 8.49304 7.57813 8.45092 7.5516C8.4088 7.52506 8.36181 7.50718 8.3127 7.499C8.2636 7.49081 8.21335 7.49249 8.1649 7.50393C8.11644 7.51537 8.07075 7.53634 8.03049 7.56562C7.99023 7.5949 7.9562 7.63191 7.93039 7.67448C7.90458 7.71705 7.8875 7.76433 7.88016 7.81357L7.50516 10.0636C7.50179 10.0839 7.50007 10.1044 7.5 10.125C7.50075 10.6565 7.68934 11.1706 8.03244 11.5764C8.37554 11.9823 8.85107 12.2539 9.375 12.3431V16.5C9.375 16.5994 9.41451 16.6948 9.48484 16.7651C9.55516 16.8355 9.65054 16.875 9.75 16.875C9.84946 16.875 9.94484 16.8355 10.0152 16.7651C10.0855 16.6948 10.125 16.5994 10.125 16.5V12.3431C10.6489 12.2539 11.1245 11.9823 11.4676 11.5764C11.8107 11.1706 11.9993 10.6565 12 10.125C11.9999 10.1044 11.9982 10.0839 11.9948 10.0636L11.6198 7.81357Z" fill="white"/>
</svg>
