<svg width="24" height="29" viewBox="0 0 24 29" fill="none" xmlns="http://www.w3.org/2000/svg">
<path d="M12 27L5.33333 20.0902C3.8238 18.6908 2.7598 16.8493 2.28213 14.8094C1.80446 12.7695 1.93562 10.6273 2.65828 8.66637C3.38093 6.70543 4.66101 5.01814 6.32912 3.82775C7.99723 2.63736 9.97475 2 12 2C14.0252 2 16.0028 2.63736 17.6709 3.82775C19.339 5.01814 20.6191 6.70543 21.3417 8.66637C22.0644 10.6273 22.1955 12.7695 21.7179 14.8094C21.2402 16.8493 20.1762 18.6908 18.6667 20.0902L12 27Z" fill="#909090" fill-opacity="0.51" stroke="#929292" stroke-width="2.14713" stroke-linecap="round" stroke-linejoin="round"/>
<circle cx="12" cy="12" r="8" fill="#365D7C"/>
<path d="M15.4375 8.5625H8.5625C8.39674 8.5625 8.23777 8.62835 8.12056 8.74556C8.00335 8.86277 7.9375 9.02174 7.9375 9.1875V14.8125C7.9375 14.9783 8.00335 15.1372 8.12056 15.2544C8.23777 15.3717 8.39674 15.4375 8.5625 15.4375H15.4375C15.6033 15.4375 15.7622 15.3717 15.8794 15.2544C15.9967 15.1372 16.0625 14.9783 16.0625 14.8125V9.1875C16.0625 9.02174 15.9967 8.86277 15.8794 8.74556C15.7622 8.62835 15.6033 8.5625 15.4375 8.5625ZM12 12.3125C11.5029 12.312 11.0263 12.1143 10.6747 11.7628C10.3232 11.4112 10.1255 10.9346 10.125 10.4375C10.125 10.3546 10.1579 10.2751 10.2165 10.2165C10.2751 10.1579 10.3546 10.125 10.4375 10.125C10.5204 10.125 10.5999 10.1579 10.6585 10.2165C10.7171 10.2751 10.75 10.3546 10.75 10.4375C10.75 10.769 10.8817 11.087 11.1161 11.3214C11.3505 11.5558 11.6685 11.6875 12 11.6875C12.3315 11.6875 12.6495 11.5558 12.8839 11.3214C13.1183 11.087 13.25 10.769 13.25 10.4375C13.25 10.3546 13.2829 10.2751 13.3415 10.2165C13.4001 10.1579 13.4796 10.125 13.5625 10.125C13.6454 10.125 13.7249 10.1579 13.7835 10.2165C13.8421 10.2751 13.875 10.3546 13.875 10.4375C13.8745 10.9346 13.6768 11.4112 13.3253 11.7628C12.9737 12.1143 12.4971 12.312 12 12.3125Z" fill="white"/>
</svg>
<svg width="24" height="29" viewBox="0 0 24 29" fill="none" xmlns="http://www.w3.org/2000/svg">
<path d="M12 27L5.33333 20.0902C3.8238 18.6908 2.7598 16.8493 2.28213 14.8094C1.80446 12.7695 1.93562 10.6273 2.65828 8.66637C3.38093 6.70543 4.66101 5.01814 6.32912 3.82775C7.99723 2.63736 9.97475 2 12 2C14.0252 2 16.0028 2.63736 17.6709 3.82775C19.339 5.01814 20.6191 6.70543 21.3417 8.66637C22.0644 10.6273 22.1955 12.7695 21.7179 14.8094C21.2402 16.8493 20.1762 18.6908 18.6667 20.0902L12 27Z" fill="#909090" fill-opacity="0.51" stroke="#929292" stroke-width="2.14713" stroke-linecap="round" stroke-linejoin="round"/>
<circle cx="12" cy="12" r="8" fill="#365D7C"/>
<g clip-path="url(#clip0_1_4)">
<path d="M16.3637 9.89609L15.3621 13.5008C15.307 13.6977 15.1893 13.8713 15.0266 13.9952C14.864 14.1191 14.6654 14.1866 14.4609 14.1875H10.6C10.3949 14.1874 10.1955 14.1202 10.0322 13.9963C9.86885 13.8723 9.75054 13.6983 9.69531 13.5008L8.325 8.5625H7.625C7.54212 8.5625 7.46263 8.52958 7.40403 8.47097C7.34542 8.41237 7.3125 8.33288 7.3125 8.25C7.3125 8.16712 7.34542 8.08763 7.40403 8.02903C7.46263 7.97042 7.54212 7.9375 7.625 7.9375H8.5625C8.63082 7.93749 8.69726 7.95986 8.75166 8.00121C8.80605 8.04255 8.8454 8.10058 8.86367 8.16641L9.23398 9.5H16.0625C16.1107 9.49999 16.1582 9.51112 16.2014 9.53252C16.2445 9.55392 16.2822 9.58501 16.3113 9.62336C16.3405 9.6617 16.3604 9.70628 16.3695 9.75359C16.3785 9.8009 16.3766 9.84967 16.3637 9.89609ZM10.4375 14.8125C10.3139 14.8125 10.193 14.8492 10.0903 14.9178C9.98749 14.9865 9.90738 15.0841 9.86008 15.1983C9.81277 15.3125 9.80039 15.4382 9.82451 15.5594C9.84862 15.6807 9.90815 15.792 9.99556 15.8794C10.083 15.9668 10.1943 16.0264 10.3156 16.0505C10.4368 16.0746 10.5625 16.0622 10.6767 16.0149C10.7909 15.9676 10.8885 15.8875 10.9572 15.7847C11.0258 15.682 11.0625 15.5611 11.0625 15.4375C11.0625 15.2717 10.9967 15.1128 10.8794 14.9956C10.7622 14.8783 10.6033 14.8125 10.4375 14.8125ZM14.5 14.8125C14.3764 14.8125 14.2555 14.8492 14.1528 14.9178C14.05 14.9865 13.9699 15.0841 13.9226 15.1983C13.8753 15.3125 13.8629 15.4382 13.887 15.5594C13.9111 15.6807 13.9707 15.792 14.0581 15.8794C14.1455 15.9668 14.2568 16.0264 14.3781 16.0505C14.4993 16.0746 14.625 16.0622 14.7392 16.0149C14.8534 15.9676 14.951 15.8875 15.0197 15.7847C15.0883 15.682 15.125 15.5611 15.125 15.4375C15.125 15.2717 15.0592 15.1128 14.9419 14.9956C14.8247 14.8783 14.6658 14.8125 14.5 14.8125Z" fill="white"/>
</g>
<defs>
<clipPath id="clip0_1_4">
<rect width="10" height="10" fill="white" transform="translate(7 7)"/>
</clipPath>
</defs>
</svg>