<svg width="24" height="29" viewBox="0 0 24 29" fill="none" xmlns="http://www.w3.org/2000/svg">
<path d="M12 27L5.33333 20.0902C3.8238 18.6908 2.7598 16.8493 2.28213 14.8094C1.80446 12.7695 1.93562 10.6273 2.65828 8.66637C3.38093 6.70543 4.66101 5.01814 6.32912 3.82775C7.99723 2.63736 9.97475 2 12 2C14.0252 2 16.0028 2.63736 17.6709 3.82775C19.339 5.01814 20.6191 6.70543 21.3417 8.66637C22.0644 10.6273 22.1955 12.7695 21.7179 14.8094C21.2402 16.8493 20.1762 18.6908 18.6667 20.0902L12 27Z" fill="#909090" fill-opacity="0.51" stroke="#929292" stroke-width="2.14713" stroke-linecap="round" stroke-linejoin="round"/>
<circle cx="12" cy="12" r="8" fill="#365D7C"/>
<path d="M17.25 11.0625C17.25 11.3221 17.173 11.5758 17.0288 11.7917C16.8846 12.0075 16.6796 12.1758 16.4398 12.2751C16.1999 12.3744 15.936 12.4004 15.6814 12.3498C15.4268 12.2991 15.193 12.1741 15.0094 11.9906C14.8259 11.807 14.7009 11.5732 14.6502 11.3186C14.5996 11.064 14.6256 10.8001 14.7249 10.5602C14.8242 10.3204 14.9925 10.1154 15.2083 9.9712C15.4242 9.82698 15.6779 9.75 15.9375 9.75C16.2856 9.75 16.6194 9.88828 16.8656 10.1344C17.1117 10.3806 17.25 10.7144 17.25 11.0625ZM9.375 11.0625C9.375 10.8029 9.29802 10.5492 9.1538 10.3333C9.00959 10.1175 8.8046 9.94925 8.56477 9.84991C8.32494 9.75057 8.06104 9.72458 7.80644 9.77522C7.55184 9.82586 7.31798 9.95087 7.13442 10.1344C6.95087 10.318 6.82586 10.5518 6.77522 10.8064C6.72458 11.061 6.75057 11.3249 6.84991 11.5648C6.94925 11.8046 7.11748 12.0096 7.33331 12.1538C7.54915 12.298 7.80291 12.375 8.0625 12.375C8.4106 12.375 8.74444 12.2367 8.99058 11.9906C9.23672 11.7444 9.375 11.4106 9.375 11.0625ZM10.3125 10.125C10.5721 10.125 10.8258 10.048 11.0417 9.9038C11.2575 9.75958 11.4258 9.5546 11.5251 9.31477C11.6244 9.07494 11.6504 8.81104 11.5998 8.55644C11.5491 8.30184 11.4241 8.06798 11.2406 7.88442C11.057 7.70087 10.8232 7.57586 10.5686 7.52522C10.314 7.47458 10.0501 7.50057 9.81023 7.59991C9.5704 7.69925 9.36542 7.86748 9.2212 8.08331C9.07698 8.29915 9 8.55291 9 8.8125C9 9.1606 9.13828 9.49444 9.38442 9.74058C9.63056 9.98672 9.9644 10.125 10.3125 10.125ZM13.6875 10.125C13.9471 10.125 14.2008 10.048 14.4167 9.9038C14.6325 9.75958 14.8008 9.5546 14.9001 9.31477C14.9994 9.07494 15.0254 8.81104 14.9748 8.55644C14.9241 8.30184 14.7991 8.06798 14.6156 7.88442C14.432 7.70087 14.1982 7.57586 13.9436 7.52522C13.689 7.47458 13.4251 7.50057 13.1852 7.59991C12.9454 7.69925 12.7404 7.86748 12.5962 8.08331C12.452 8.29915 12.375 8.55291 12.375 8.8125C12.375 9.1606 12.5133 9.49444 12.7594 9.74058C13.0056 9.98672 13.3394 10.125 13.6875 10.125ZM14.7713 12.9778C14.5808 12.8727 14.4129 12.7311 14.2772 12.5611C14.1415 12.391 14.0407 12.1959 13.9805 11.9869C13.8558 11.5581 13.5953 11.1813 13.2382 10.9133C12.881 10.6452 12.4466 10.5003 12 10.5003C11.5535 10.5003 11.119 10.6452 10.7618 10.9133C10.4047 11.1813 10.1442 11.5581 10.0195 11.9869C9.89909 12.4075 9.61672 12.7632 9.23438 12.9759C8.86759 13.1744 8.57744 13.4895 8.40981 13.8714C8.24219 14.2532 8.20666 14.6801 8.30884 15.0844C8.41102 15.4887 8.64509 15.8475 8.97402 16.1038C9.30295 16.3602 9.70796 16.4996 10.125 16.5C10.3749 16.5007 10.6224 16.4508 10.8525 16.3533C11.5861 16.0507 12.4097 16.0507 13.1433 16.3533C13.5876 16.5465 14.0896 16.5603 14.5438 16.3916C14.9981 16.2229 15.3694 15.8849 15.5799 15.4485C15.7904 15.012 15.8238 14.511 15.673 14.0505C15.5223 13.59 15.1991 13.2057 14.7713 12.9783V12.9778Z" fill="white"/>
</svg>